<mxfile host="Electron" agent="Mozilla/5.0 (Windows NT 10.0; Win64; x64) AppleWebKit/537.36 (KHTML, like Gecko) draw.io/26.2.2 Chrome/134.0.6998.178 Electron/35.1.2 Safari/537.36" version="26.2.2">
  <diagram name="Page-1" id="kDYEAKsUjOAsDCR-wg7L">
    <mxGraphModel dx="1310" dy="4338" grid="1" gridSize="10" guides="1" tooltips="1" connect="1" arrows="1" fold="1" page="1" pageScale="1" pageWidth="827" pageHeight="1169" math="0" shadow="0">
      <root>
        <mxCell id="0" />
        <mxCell id="1" parent="0" />
        <mxCell id="fqJWR_jfEDpAS1yq1Xmd-133" value="&lt;b&gt;write symlink&lt;/b&gt;" style="shape=umlFrame;whiteSpace=wrap;html=1;pointerEvents=0;recursiveResize=0;container=1;collapsible=0;width=160;align=center;" parent="1" vertex="1">
          <mxGeometry x="402" y="-1170" width="425" height="760" as="geometry" />
        </mxCell>
        <mxCell id="fqJWR_jfEDpAS1yq1Xmd-188" value="" style="edgeStyle=orthogonalEdgeStyle;rounded=0;orthogonalLoop=1;jettySize=auto;html=1;dashed=1;endArrow=none;endFill=0;exitX=0;exitY=0.5;exitDx=0;exitDy=0;" parent="fqJWR_jfEDpAS1yq1Xmd-133" source="hv76raOZ1HIrlFXWzZwD-107" target="fqJWR_jfEDpAS1yq1Xmd-103" edge="1">
          <mxGeometry relative="1" as="geometry">
            <mxPoint x="110" y="120" as="sourcePoint" />
          </mxGeometry>
        </mxCell>
        <mxCell id="fqJWR_jfEDpAS1yq1Xmd-166" value="" style="group" parent="fqJWR_jfEDpAS1yq1Xmd-133" vertex="1" connectable="0">
          <mxGeometry x="65" y="59" width="95" height="30" as="geometry" />
        </mxCell>
        <mxCell id="fqJWR_jfEDpAS1yq1Xmd-143" value="start" style="text;html=1;align=center;verticalAlign=middle;whiteSpace=wrap;rounded=0;" parent="fqJWR_jfEDpAS1yq1Xmd-166" vertex="1">
          <mxGeometry x="20" width="40" height="30" as="geometry" />
        </mxCell>
        <mxCell id="fqJWR_jfEDpAS1yq1Xmd-103" value="" style="ellipse;fillColor=strokeColor;html=1;" parent="fqJWR_jfEDpAS1yq1Xmd-166" vertex="1">
          <mxGeometry x="65" width="30" height="30" as="geometry" />
        </mxCell>
        <mxCell id="hv76raOZ1HIrlFXWzZwD-106" value="&lt;b&gt;&lt;font style=&quot;font-size: 9px;&quot;&gt;syncutils.write_symlink&lt;/font&gt;&lt;/b&gt;" style="text;html=1;align=center;verticalAlign=middle;whiteSpace=wrap;rounded=0;" vertex="1" parent="fqJWR_jfEDpAS1yq1Xmd-133">
          <mxGeometry y="29" width="130" height="30" as="geometry" />
        </mxCell>
        <mxCell id="hv76raOZ1HIrlFXWzZwD-107" value="&lt;b&gt;target path&lt;/b&gt;&lt;div&gt;&lt;b&gt;link folder path&lt;/b&gt;&lt;/div&gt;&lt;div&gt;&lt;b&gt;link names (optional)&lt;/b&gt;&lt;/div&gt;&lt;div&gt;&lt;b&gt;resolve path&amp;nbsp;&lt;/b&gt;&lt;b style=&quot;background-color: transparent; color: light-dark(rgb(0, 0, 0), rgb(255, 255, 255));&quot;&gt;(default: True)&lt;/b&gt;&lt;/div&gt;" style="html=1;whiteSpace=wrap;fillColor=#8BC478;align=left;" vertex="1" parent="fqJWR_jfEDpAS1yq1Xmd-133">
          <mxGeometry x="218" y="34" width="162" height="80" as="geometry" />
        </mxCell>
        <mxCell id="hv76raOZ1HIrlFXWzZwD-114" value="" style="group" vertex="1" connectable="0" parent="fqJWR_jfEDpAS1yq1Xmd-133">
          <mxGeometry x="215" y="130" width="95" height="30" as="geometry" />
        </mxCell>
        <mxCell id="hv76raOZ1HIrlFXWzZwD-115" value="raise Type Error" style="text;html=1;align=center;verticalAlign=middle;whiteSpace=wrap;rounded=0;" vertex="1" parent="hv76raOZ1HIrlFXWzZwD-114">
          <mxGeometry x="37" width="65" height="30" as="geometry" />
        </mxCell>
        <mxCell id="hv76raOZ1HIrlFXWzZwD-116" value="" style="shape=sumEllipse;perimeter=ellipsePerimeter;html=1;backgroundOutline=1;" vertex="1" parent="hv76raOZ1HIrlFXWzZwD-114">
          <mxGeometry width="30" height="30" as="geometry" />
        </mxCell>
        <mxCell id="hv76raOZ1HIrlFXWzZwD-117" value="" style="group" vertex="1" connectable="0" parent="fqJWR_jfEDpAS1yq1Xmd-133">
          <mxGeometry x="65" y="193" width="95" height="40" as="geometry" />
        </mxCell>
        <mxCell id="hv76raOZ1HIrlFXWzZwD-118" value="target path exists?" style="text;html=1;align=center;verticalAlign=middle;whiteSpace=wrap;rounded=0;" vertex="1" parent="hv76raOZ1HIrlFXWzZwD-117">
          <mxGeometry width="60" height="40" as="geometry" />
        </mxCell>
        <mxCell id="hv76raOZ1HIrlFXWzZwD-119" value="" style="rhombus;" vertex="1" parent="hv76raOZ1HIrlFXWzZwD-117">
          <mxGeometry x="65" y="5" width="30" height="30" as="geometry" />
        </mxCell>
        <mxCell id="hv76raOZ1HIrlFXWzZwD-123" value="" style="group" vertex="1" connectable="0" parent="fqJWR_jfEDpAS1yq1Xmd-133">
          <mxGeometry x="65" y="258" width="95" height="40" as="geometry" />
        </mxCell>
        <mxCell id="hv76raOZ1HIrlFXWzZwD-124" value="resolve&amp;nbsp;&lt;span style=&quot;background-color: transparent; color: light-dark(rgb(0, 0, 0), rgb(255, 255, 255));&quot;&gt;path&lt;/span&gt;&lt;div&gt;is set to True?&lt;/div&gt;" style="text;html=1;align=center;verticalAlign=middle;whiteSpace=wrap;rounded=0;" vertex="1" parent="hv76raOZ1HIrlFXWzZwD-123">
          <mxGeometry x="-10" width="70" height="40" as="geometry" />
        </mxCell>
        <mxCell id="hv76raOZ1HIrlFXWzZwD-125" value="" style="rhombus;" vertex="1" parent="hv76raOZ1HIrlFXWzZwD-123">
          <mxGeometry x="65" y="5" width="30" height="30" as="geometry" />
        </mxCell>
        <mxCell id="hv76raOZ1HIrlFXWzZwD-199" style="edgeStyle=orthogonalEdgeStyle;rounded=0;orthogonalLoop=1;jettySize=auto;html=1;exitX=0;exitY=0.75;exitDx=0;exitDy=0;entryX=0.5;entryY=0;entryDx=0;entryDy=0;" edge="1" parent="fqJWR_jfEDpAS1yq1Xmd-133" source="hv76raOZ1HIrlFXWzZwD-126" target="hv76raOZ1HIrlFXWzZwD-129">
          <mxGeometry relative="1" as="geometry">
            <Array as="points">
              <mxPoint x="168" y="291" />
              <mxPoint x="168" y="310" />
              <mxPoint x="145" y="310" />
            </Array>
          </mxGeometry>
        </mxCell>
        <mxCell id="hv76raOZ1HIrlFXWzZwD-126" value="&lt;div style=&quot;&quot;&gt;set target path to absolute target path (get full path)&lt;/div&gt;" style="html=1;dashed=0;rounded=1;absoluteArcSize=1;arcSize=20;verticalAlign=middle;align=center;whiteSpace=wrap;" vertex="1" parent="fqJWR_jfEDpAS1yq1Xmd-133">
          <mxGeometry x="208" y="253" width="132" height="50" as="geometry" />
        </mxCell>
        <mxCell id="hv76raOZ1HIrlFXWzZwD-127" value="" style="group;align=left;movable=1;resizable=1;rotatable=1;deletable=1;editable=1;locked=0;connectable=1;" vertex="1" connectable="0" parent="fqJWR_jfEDpAS1yq1Xmd-133">
          <mxGeometry x="65" y="320" width="95" height="40" as="geometry" />
        </mxCell>
        <mxCell id="hv76raOZ1HIrlFXWzZwD-128" value="link folder exists?" style="text;html=1;align=center;verticalAlign=middle;whiteSpace=wrap;rounded=0;" vertex="1" parent="hv76raOZ1HIrlFXWzZwD-127">
          <mxGeometry x="5" width="60" height="40" as="geometry" />
        </mxCell>
        <mxCell id="hv76raOZ1HIrlFXWzZwD-129" value="" style="rhombus;" vertex="1" parent="hv76raOZ1HIrlFXWzZwD-127">
          <mxGeometry x="65" y="5" width="30" height="30" as="geometry" />
        </mxCell>
        <mxCell id="hv76raOZ1HIrlFXWzZwD-209" style="edgeStyle=orthogonalEdgeStyle;rounded=0;orthogonalLoop=1;jettySize=auto;html=1;exitX=0.001;exitY=0.811;exitDx=0;exitDy=0;entryX=0.5;entryY=0;entryDx=0;entryDy=0;exitPerimeter=0;" edge="1" parent="fqJWR_jfEDpAS1yq1Xmd-133" source="hv76raOZ1HIrlFXWzZwD-130" target="hv76raOZ1HIrlFXWzZwD-133">
          <mxGeometry relative="1" as="geometry">
            <Array as="points">
              <mxPoint x="168" y="354" />
              <mxPoint x="168" y="380" />
              <mxPoint x="145" y="380" />
            </Array>
          </mxGeometry>
        </mxCell>
        <mxCell id="hv76raOZ1HIrlFXWzZwD-130" value="create link folder" style="html=1;dashed=0;rounded=1;absoluteArcSize=1;arcSize=20;verticalAlign=middle;align=center;whiteSpace=wrap;" vertex="1" parent="fqJWR_jfEDpAS1yq1Xmd-133">
          <mxGeometry x="208" y="317.5" width="132" height="45" as="geometry" />
        </mxCell>
        <mxCell id="hv76raOZ1HIrlFXWzZwD-131" value="" style="group;align=left;movable=1;resizable=1;rotatable=1;deletable=1;editable=1;locked=0;connectable=1;" vertex="1" connectable="0" parent="fqJWR_jfEDpAS1yq1Xmd-133">
          <mxGeometry x="65" y="390" width="95" height="40" as="geometry" />
        </mxCell>
        <mxCell id="hv76raOZ1HIrlFXWzZwD-132" value="link name is None?" style="text;html=1;align=center;verticalAlign=middle;whiteSpace=wrap;rounded=0;" vertex="1" parent="hv76raOZ1HIrlFXWzZwD-131">
          <mxGeometry x="5" width="60" height="40" as="geometry" />
        </mxCell>
        <mxCell id="hv76raOZ1HIrlFXWzZwD-133" value="" style="rhombus;" vertex="1" parent="hv76raOZ1HIrlFXWzZwD-131">
          <mxGeometry x="65" y="5" width="30" height="30" as="geometry" />
        </mxCell>
        <mxCell id="hv76raOZ1HIrlFXWzZwD-134" value="set link name to target item name" style="html=1;dashed=0;rounded=1;absoluteArcSize=1;arcSize=20;verticalAlign=middle;align=center;whiteSpace=wrap;" vertex="1" parent="fqJWR_jfEDpAS1yq1Xmd-133">
          <mxGeometry x="208" y="385" width="130" height="50" as="geometry" />
        </mxCell>
        <mxCell id="hv76raOZ1HIrlFXWzZwD-216" style="edgeStyle=orthogonalEdgeStyle;rounded=0;orthogonalLoop=1;jettySize=auto;html=1;entryX=0.5;entryY=0;entryDx=0;entryDy=0;" edge="1" parent="fqJWR_jfEDpAS1yq1Xmd-133" source="hv76raOZ1HIrlFXWzZwD-135" target="hv76raOZ1HIrlFXWzZwD-140">
          <mxGeometry relative="1" as="geometry" />
        </mxCell>
        <mxCell id="hv76raOZ1HIrlFXWzZwD-135" value="set link path to &lt;font style=&quot;font-size: 9px;&quot;&gt;&lt;font style=&quot;&quot; face=&quot;Courier New&quot;&gt;link_folder/link_name&lt;/font&gt;&amp;nbsp;&lt;/font&gt;" style="html=1;dashed=0;rounded=1;absoluteArcSize=1;arcSize=20;verticalAlign=middle;align=center;whiteSpace=wrap;" vertex="1" parent="fqJWR_jfEDpAS1yq1Xmd-133">
          <mxGeometry x="78.5" y="460" width="133" height="40" as="geometry" />
        </mxCell>
        <mxCell id="hv76raOZ1HIrlFXWzZwD-138" value="" style="group;align=left;movable=1;resizable=1;rotatable=1;deletable=1;editable=1;locked=0;connectable=1;" vertex="1" connectable="0" parent="fqJWR_jfEDpAS1yq1Xmd-133">
          <mxGeometry x="65" y="530" width="95" height="40" as="geometry" />
        </mxCell>
        <mxCell id="hv76raOZ1HIrlFXWzZwD-139" value="symlink at link path exists?" style="text;html=1;align=center;verticalAlign=middle;whiteSpace=wrap;rounded=0;" vertex="1" parent="hv76raOZ1HIrlFXWzZwD-138">
          <mxGeometry x="5" width="60" height="40" as="geometry" />
        </mxCell>
        <mxCell id="hv76raOZ1HIrlFXWzZwD-140" value="" style="rhombus;" vertex="1" parent="hv76raOZ1HIrlFXWzZwD-138">
          <mxGeometry x="65" y="5" width="30" height="30" as="geometry" />
        </mxCell>
        <mxCell id="hv76raOZ1HIrlFXWzZwD-144" value="" style="group" vertex="1" connectable="0" parent="fqJWR_jfEDpAS1yq1Xmd-133">
          <mxGeometry x="291" y="534" width="130" height="30" as="geometry" />
        </mxCell>
        <mxCell id="hv76raOZ1HIrlFXWzZwD-145" value="Skip writing link, print existing link message" style="text;html=1;align=center;verticalAlign=middle;whiteSpace=wrap;rounded=0;" vertex="1" parent="hv76raOZ1HIrlFXWzZwD-144">
          <mxGeometry x="37" width="93" height="30" as="geometry" />
        </mxCell>
        <mxCell id="hv76raOZ1HIrlFXWzZwD-146" value="" style="shape=sumEllipse;perimeter=ellipsePerimeter;html=1;backgroundOutline=1;" vertex="1" parent="hv76raOZ1HIrlFXWzZwD-144">
          <mxGeometry width="30" height="30" as="geometry" />
        </mxCell>
        <mxCell id="hv76raOZ1HIrlFXWzZwD-153" value="" style="group;align=left;movable=1;resizable=1;rotatable=1;deletable=1;editable=1;locked=0;connectable=1;" vertex="1" connectable="0" parent="fqJWR_jfEDpAS1yq1Xmd-133">
          <mxGeometry x="65" y="620" width="95" height="40" as="geometry" />
        </mxCell>
        <mxCell id="hv76raOZ1HIrlFXWzZwD-154" value="Error accessing item at target path or link path?" style="text;html=1;align=center;verticalAlign=middle;whiteSpace=wrap;rounded=0;" vertex="1" parent="hv76raOZ1HIrlFXWzZwD-153">
          <mxGeometry x="-20" width="85" height="40" as="geometry" />
        </mxCell>
        <mxCell id="hv76raOZ1HIrlFXWzZwD-155" value="" style="rhombus;" vertex="1" parent="hv76raOZ1HIrlFXWzZwD-153">
          <mxGeometry x="65" y="5" width="30" height="30" as="geometry" />
        </mxCell>
        <mxCell id="hv76raOZ1HIrlFXWzZwD-184" value="" style="group" vertex="1" connectable="0" parent="fqJWR_jfEDpAS1yq1Xmd-133">
          <mxGeometry x="13" y="120" width="147" height="40" as="geometry" />
        </mxCell>
        <mxCell id="hv76raOZ1HIrlFXWzZwD-109" value="Type check: target path and link folder path are type &lt;font style=&quot;font-size: 10px;&quot; face=&quot;Courier New&quot;&gt;pathlib.Path&lt;/font&gt; and link name is type &lt;font style=&quot;font-size: 10px;&quot; face=&quot;Courier New&quot;&gt;string &lt;/font&gt;or &lt;font style=&quot;font-size: 10px;&quot; face=&quot;Courier New&quot;&gt;None&lt;/font&gt;?" style="text;html=1;align=center;verticalAlign=middle;whiteSpace=wrap;rounded=0;" vertex="1" parent="hv76raOZ1HIrlFXWzZwD-184">
          <mxGeometry width="117" height="40" as="geometry" />
        </mxCell>
        <mxCell id="hv76raOZ1HIrlFXWzZwD-110" value="" style="rhombus;" vertex="1" parent="hv76raOZ1HIrlFXWzZwD-184">
          <mxGeometry x="117" y="10" width="30" height="30" as="geometry" />
        </mxCell>
        <mxCell id="hv76raOZ1HIrlFXWzZwD-185" style="edgeStyle=orthogonalEdgeStyle;rounded=0;orthogonalLoop=1;jettySize=auto;html=1;entryX=0.5;entryY=0;entryDx=0;entryDy=0;" edge="1" parent="fqJWR_jfEDpAS1yq1Xmd-133" source="fqJWR_jfEDpAS1yq1Xmd-103" target="hv76raOZ1HIrlFXWzZwD-110">
          <mxGeometry relative="1" as="geometry" />
        </mxCell>
        <mxCell id="hv76raOZ1HIrlFXWzZwD-186" style="edgeStyle=orthogonalEdgeStyle;rounded=0;orthogonalLoop=1;jettySize=auto;html=1;entryX=0;entryY=0.5;entryDx=0;entryDy=0;" edge="1" parent="fqJWR_jfEDpAS1yq1Xmd-133" source="hv76raOZ1HIrlFXWzZwD-110" target="hv76raOZ1HIrlFXWzZwD-116">
          <mxGeometry relative="1" as="geometry" />
        </mxCell>
        <mxCell id="hv76raOZ1HIrlFXWzZwD-187" value="no" style="edgeLabel;html=1;align=center;verticalAlign=middle;resizable=0;points=[];" vertex="1" connectable="0" parent="hv76raOZ1HIrlFXWzZwD-186">
          <mxGeometry x="-0.2416" y="-2" relative="1" as="geometry">
            <mxPoint y="-2" as="offset" />
          </mxGeometry>
        </mxCell>
        <mxCell id="hv76raOZ1HIrlFXWzZwD-188" style="edgeStyle=orthogonalEdgeStyle;rounded=0;orthogonalLoop=1;jettySize=auto;html=1;entryX=0.5;entryY=0;entryDx=0;entryDy=0;" edge="1" parent="fqJWR_jfEDpAS1yq1Xmd-133" source="hv76raOZ1HIrlFXWzZwD-110" target="hv76raOZ1HIrlFXWzZwD-119">
          <mxGeometry relative="1" as="geometry" />
        </mxCell>
        <mxCell id="hv76raOZ1HIrlFXWzZwD-189" value="yes" style="edgeLabel;html=1;align=center;verticalAlign=middle;resizable=0;points=[];" vertex="1" connectable="0" parent="hv76raOZ1HIrlFXWzZwD-188">
          <mxGeometry x="-0.3761" relative="1" as="geometry">
            <mxPoint y="1" as="offset" />
          </mxGeometry>
        </mxCell>
        <mxCell id="hv76raOZ1HIrlFXWzZwD-120" value="" style="group" vertex="1" connectable="0" parent="fqJWR_jfEDpAS1yq1Xmd-133">
          <mxGeometry x="215" y="198" width="95" height="30" as="geometry" />
        </mxCell>
        <mxCell id="hv76raOZ1HIrlFXWzZwD-121" value="raise FileNotFound Error" style="text;html=1;align=center;verticalAlign=middle;whiteSpace=wrap;rounded=0;" vertex="1" parent="hv76raOZ1HIrlFXWzZwD-120">
          <mxGeometry x="37" width="65" height="30" as="geometry" />
        </mxCell>
        <mxCell id="hv76raOZ1HIrlFXWzZwD-122" value="" style="shape=sumEllipse;perimeter=ellipsePerimeter;html=1;backgroundOutline=1;" vertex="1" parent="hv76raOZ1HIrlFXWzZwD-120">
          <mxGeometry width="30" height="30" as="geometry" />
        </mxCell>
        <mxCell id="hv76raOZ1HIrlFXWzZwD-191" style="edgeStyle=orthogonalEdgeStyle;rounded=0;orthogonalLoop=1;jettySize=auto;html=1;entryX=0;entryY=0.5;entryDx=0;entryDy=0;" edge="1" parent="fqJWR_jfEDpAS1yq1Xmd-133" source="hv76raOZ1HIrlFXWzZwD-119" target="hv76raOZ1HIrlFXWzZwD-122">
          <mxGeometry relative="1" as="geometry" />
        </mxCell>
        <mxCell id="hv76raOZ1HIrlFXWzZwD-192" value="no" style="edgeLabel;html=1;align=center;verticalAlign=middle;resizable=0;points=[];" vertex="1" connectable="0" parent="hv76raOZ1HIrlFXWzZwD-191">
          <mxGeometry x="-0.0993" y="1" relative="1" as="geometry">
            <mxPoint as="offset" />
          </mxGeometry>
        </mxCell>
        <mxCell id="hv76raOZ1HIrlFXWzZwD-193" style="edgeStyle=orthogonalEdgeStyle;rounded=0;orthogonalLoop=1;jettySize=auto;html=1;entryX=0.5;entryY=0;entryDx=0;entryDy=0;" edge="1" parent="fqJWR_jfEDpAS1yq1Xmd-133" source="hv76raOZ1HIrlFXWzZwD-119" target="hv76raOZ1HIrlFXWzZwD-125">
          <mxGeometry relative="1" as="geometry" />
        </mxCell>
        <mxCell id="hv76raOZ1HIrlFXWzZwD-194" value="yes" style="edgeLabel;html=1;align=center;verticalAlign=middle;resizable=0;points=[];" vertex="1" connectable="0" parent="hv76raOZ1HIrlFXWzZwD-193">
          <mxGeometry x="-0.4824" y="-1" relative="1" as="geometry">
            <mxPoint as="offset" />
          </mxGeometry>
        </mxCell>
        <mxCell id="hv76raOZ1HIrlFXWzZwD-197" style="edgeStyle=orthogonalEdgeStyle;rounded=0;orthogonalLoop=1;jettySize=auto;html=1;entryX=0.5;entryY=0;entryDx=0;entryDy=0;" edge="1" parent="fqJWR_jfEDpAS1yq1Xmd-133" source="hv76raOZ1HIrlFXWzZwD-125" target="hv76raOZ1HIrlFXWzZwD-129">
          <mxGeometry relative="1" as="geometry" />
        </mxCell>
        <mxCell id="hv76raOZ1HIrlFXWzZwD-198" value="no" style="edgeLabel;html=1;align=center;verticalAlign=middle;resizable=0;points=[];" vertex="1" connectable="0" parent="hv76raOZ1HIrlFXWzZwD-197">
          <mxGeometry x="0.0933" y="1" relative="1" as="geometry">
            <mxPoint y="-6" as="offset" />
          </mxGeometry>
        </mxCell>
        <mxCell id="hv76raOZ1HIrlFXWzZwD-200" style="edgeStyle=orthogonalEdgeStyle;rounded=0;orthogonalLoop=1;jettySize=auto;html=1;entryX=0;entryY=0.5;entryDx=0;entryDy=0;" edge="1" parent="fqJWR_jfEDpAS1yq1Xmd-133" source="hv76raOZ1HIrlFXWzZwD-129" target="hv76raOZ1HIrlFXWzZwD-130">
          <mxGeometry relative="1" as="geometry" />
        </mxCell>
        <mxCell id="hv76raOZ1HIrlFXWzZwD-201" value="no" style="edgeLabel;html=1;align=center;verticalAlign=middle;resizable=0;points=[];" vertex="1" connectable="0" parent="hv76raOZ1HIrlFXWzZwD-200">
          <mxGeometry x="-0.0326" y="-1" relative="1" as="geometry">
            <mxPoint y="-2" as="offset" />
          </mxGeometry>
        </mxCell>
        <mxCell id="hv76raOZ1HIrlFXWzZwD-204" style="edgeStyle=orthogonalEdgeStyle;rounded=0;orthogonalLoop=1;jettySize=auto;html=1;entryX=-0.013;entryY=0.492;entryDx=0;entryDy=0;entryPerimeter=0;" edge="1" parent="fqJWR_jfEDpAS1yq1Xmd-133" source="hv76raOZ1HIrlFXWzZwD-125" target="hv76raOZ1HIrlFXWzZwD-126">
          <mxGeometry relative="1" as="geometry">
            <Array as="points" />
          </mxGeometry>
        </mxCell>
        <mxCell id="hv76raOZ1HIrlFXWzZwD-205" value="no" style="edgeLabel;html=1;align=center;verticalAlign=middle;resizable=0;points=[];" vertex="1" connectable="0" parent="hv76raOZ1HIrlFXWzZwD-204">
          <mxGeometry x="-0.0361" y="1" relative="1" as="geometry">
            <mxPoint as="offset" />
          </mxGeometry>
        </mxCell>
        <mxCell id="hv76raOZ1HIrlFXWzZwD-207" style="edgeStyle=orthogonalEdgeStyle;rounded=0;orthogonalLoop=1;jettySize=auto;html=1;entryX=0.5;entryY=0;entryDx=0;entryDy=0;" edge="1" parent="fqJWR_jfEDpAS1yq1Xmd-133" source="hv76raOZ1HIrlFXWzZwD-129" target="hv76raOZ1HIrlFXWzZwD-133">
          <mxGeometry relative="1" as="geometry" />
        </mxCell>
        <mxCell id="hv76raOZ1HIrlFXWzZwD-208" value="yes" style="edgeLabel;html=1;align=center;verticalAlign=middle;resizable=0;points=[];" vertex="1" connectable="0" parent="hv76raOZ1HIrlFXWzZwD-207">
          <mxGeometry x="-0.6048" y="-1" relative="1" as="geometry">
            <mxPoint x="1" y="3" as="offset" />
          </mxGeometry>
        </mxCell>
        <mxCell id="hv76raOZ1HIrlFXWzZwD-210" style="edgeStyle=orthogonalEdgeStyle;rounded=0;orthogonalLoop=1;jettySize=auto;html=1;entryX=0;entryY=0.5;entryDx=0;entryDy=0;" edge="1" parent="fqJWR_jfEDpAS1yq1Xmd-133" source="hv76raOZ1HIrlFXWzZwD-133" target="hv76raOZ1HIrlFXWzZwD-134">
          <mxGeometry relative="1" as="geometry" />
        </mxCell>
        <mxCell id="hv76raOZ1HIrlFXWzZwD-211" value="yes" style="edgeLabel;html=1;align=center;verticalAlign=middle;resizable=0;points=[];" vertex="1" connectable="0" parent="hv76raOZ1HIrlFXWzZwD-210">
          <mxGeometry x="-0.1389" relative="1" as="geometry">
            <mxPoint as="offset" />
          </mxGeometry>
        </mxCell>
        <mxCell id="hv76raOZ1HIrlFXWzZwD-212" style="edgeStyle=orthogonalEdgeStyle;rounded=0;orthogonalLoop=1;jettySize=auto;html=1;entryX=0.5;entryY=0;entryDx=0;entryDy=0;" edge="1" parent="fqJWR_jfEDpAS1yq1Xmd-133" source="hv76raOZ1HIrlFXWzZwD-133" target="hv76raOZ1HIrlFXWzZwD-135">
          <mxGeometry relative="1" as="geometry" />
        </mxCell>
        <mxCell id="hv76raOZ1HIrlFXWzZwD-213" value="no" style="edgeLabel;html=1;align=center;verticalAlign=middle;resizable=0;points=[];" vertex="1" connectable="0" parent="hv76raOZ1HIrlFXWzZwD-212">
          <mxGeometry x="0.3697" relative="1" as="geometry">
            <mxPoint y="-7" as="offset" />
          </mxGeometry>
        </mxCell>
        <mxCell id="hv76raOZ1HIrlFXWzZwD-236" style="edgeStyle=orthogonalEdgeStyle;rounded=0;orthogonalLoop=1;jettySize=auto;html=1;entryX=0;entryY=0.5;entryDx=0;entryDy=0;" edge="1" parent="fqJWR_jfEDpAS1yq1Xmd-133" source="hv76raOZ1HIrlFXWzZwD-137" target="fqJWR_jfEDpAS1yq1Xmd-136">
          <mxGeometry relative="1" as="geometry" />
        </mxCell>
        <mxCell id="hv76raOZ1HIrlFXWzZwD-137" value="write a symlink from&amp;nbsp;&lt;div&gt;link path to target path&lt;/div&gt;" style="html=1;dashed=0;rounded=1;absoluteArcSize=1;arcSize=20;verticalAlign=middle;align=center;whiteSpace=wrap;" vertex="1" parent="fqJWR_jfEDpAS1yq1Xmd-133">
          <mxGeometry x="73.5" y="690" width="143" height="40" as="geometry" />
        </mxCell>
        <mxCell id="hv76raOZ1HIrlFXWzZwD-217" value="" style="group" vertex="1" connectable="0" parent="fqJWR_jfEDpAS1yq1Xmd-133">
          <mxGeometry x="160" y="535" width="120" height="75" as="geometry" />
        </mxCell>
        <mxCell id="hv76raOZ1HIrlFXWzZwD-142" value="target of existing symlink is equal to target path?" style="text;html=1;align=center;verticalAlign=middle;whiteSpace=wrap;rounded=0;" vertex="1" parent="hv76raOZ1HIrlFXWzZwD-217">
          <mxGeometry y="35" width="120" height="40" as="geometry" />
        </mxCell>
        <mxCell id="hv76raOZ1HIrlFXWzZwD-143" value="" style="rhombus;" vertex="1" parent="hv76raOZ1HIrlFXWzZwD-217">
          <mxGeometry x="45" width="30" height="30" as="geometry" />
        </mxCell>
        <mxCell id="hv76raOZ1HIrlFXWzZwD-218" style="edgeStyle=orthogonalEdgeStyle;rounded=0;orthogonalLoop=1;jettySize=auto;html=1;entryX=0;entryY=0.5;entryDx=0;entryDy=0;" edge="1" parent="fqJWR_jfEDpAS1yq1Xmd-133" source="hv76raOZ1HIrlFXWzZwD-140" target="hv76raOZ1HIrlFXWzZwD-143">
          <mxGeometry relative="1" as="geometry" />
        </mxCell>
        <mxCell id="hv76raOZ1HIrlFXWzZwD-219" value="yes" style="edgeLabel;html=1;align=center;verticalAlign=middle;resizable=0;points=[];" vertex="1" connectable="0" parent="hv76raOZ1HIrlFXWzZwD-218">
          <mxGeometry x="-0.2812" y="-1" relative="1" as="geometry">
            <mxPoint y="-2" as="offset" />
          </mxGeometry>
        </mxCell>
        <mxCell id="hv76raOZ1HIrlFXWzZwD-221" style="edgeStyle=orthogonalEdgeStyle;rounded=0;orthogonalLoop=1;jettySize=auto;html=1;entryX=0;entryY=0.5;entryDx=0;entryDy=0;" edge="1" parent="fqJWR_jfEDpAS1yq1Xmd-133" source="hv76raOZ1HIrlFXWzZwD-143" target="hv76raOZ1HIrlFXWzZwD-146">
          <mxGeometry relative="1" as="geometry">
            <mxPoint x="268" y="549" as="targetPoint" />
          </mxGeometry>
        </mxCell>
        <mxCell id="hv76raOZ1HIrlFXWzZwD-223" value="yes" style="edgeLabel;html=1;align=center;verticalAlign=middle;resizable=0;points=[];" vertex="1" connectable="0" parent="hv76raOZ1HIrlFXWzZwD-221">
          <mxGeometry x="-0.1989" y="2" relative="1" as="geometry">
            <mxPoint x="-2" as="offset" />
          </mxGeometry>
        </mxCell>
        <mxCell id="hv76raOZ1HIrlFXWzZwD-224" style="edgeStyle=orthogonalEdgeStyle;rounded=0;orthogonalLoop=1;jettySize=auto;html=1;" edge="1" parent="fqJWR_jfEDpAS1yq1Xmd-133" source="hv76raOZ1HIrlFXWzZwD-140" target="hv76raOZ1HIrlFXWzZwD-155">
          <mxGeometry relative="1" as="geometry" />
        </mxCell>
        <mxCell id="hv76raOZ1HIrlFXWzZwD-225" value="no" style="edgeLabel;html=1;align=center;verticalAlign=middle;resizable=0;points=[];" vertex="1" connectable="0" parent="hv76raOZ1HIrlFXWzZwD-224">
          <mxGeometry x="-0.6667" y="2" relative="1" as="geometry">
            <mxPoint x="-3" y="12" as="offset" />
          </mxGeometry>
        </mxCell>
        <mxCell id="hv76raOZ1HIrlFXWzZwD-229" value="" style="group" vertex="1" connectable="0" parent="fqJWR_jfEDpAS1yq1Xmd-133">
          <mxGeometry x="291" y="470" width="128" height="30" as="geometry" />
        </mxCell>
        <mxCell id="hv76raOZ1HIrlFXWzZwD-149" value="" style="shape=sumEllipse;perimeter=ellipsePerimeter;html=1;backgroundOutline=1;" vertex="1" parent="hv76raOZ1HIrlFXWzZwD-229">
          <mxGeometry width="30" height="30" as="geometry" />
        </mxCell>
        <mxCell id="hv76raOZ1HIrlFXWzZwD-148" value="Skip writing link, print warning of same named symlink with different target" style="text;html=1;align=center;verticalAlign=middle;whiteSpace=wrap;rounded=0;" vertex="1" parent="hv76raOZ1HIrlFXWzZwD-229">
          <mxGeometry x="30" width="98" height="30" as="geometry" />
        </mxCell>
        <mxCell id="hv76raOZ1HIrlFXWzZwD-220" style="edgeStyle=orthogonalEdgeStyle;rounded=0;orthogonalLoop=1;jettySize=auto;html=1;exitX=0.5;exitY=0;exitDx=0;exitDy=0;entryX=0;entryY=0.5;entryDx=0;entryDy=0;" edge="1" parent="fqJWR_jfEDpAS1yq1Xmd-133" source="hv76raOZ1HIrlFXWzZwD-143" target="hv76raOZ1HIrlFXWzZwD-149">
          <mxGeometry relative="1" as="geometry">
            <mxPoint x="268" y="485" as="targetPoint" />
            <Array as="points">
              <mxPoint x="220" y="500" />
              <mxPoint x="238" y="500" />
              <mxPoint x="238" y="485" />
            </Array>
          </mxGeometry>
        </mxCell>
        <mxCell id="hv76raOZ1HIrlFXWzZwD-222" value="no" style="edgeLabel;html=1;align=center;verticalAlign=middle;resizable=0;points=[];" vertex="1" connectable="0" parent="hv76raOZ1HIrlFXWzZwD-220">
          <mxGeometry x="-0.7651" relative="1" as="geometry">
            <mxPoint y="-6" as="offset" />
          </mxGeometry>
        </mxCell>
        <mxCell id="hv76raOZ1HIrlFXWzZwD-230" value="" style="group" vertex="1" connectable="0" parent="fqJWR_jfEDpAS1yq1Xmd-133">
          <mxGeometry x="291" y="625" width="130" height="30" as="geometry" />
        </mxCell>
        <mxCell id="hv76raOZ1HIrlFXWzZwD-227" value="Skip writing link, print error message suggesting to check permissions" style="text;html=1;align=center;verticalAlign=middle;whiteSpace=wrap;rounded=0;" vertex="1" parent="hv76raOZ1HIrlFXWzZwD-230">
          <mxGeometry x="29" width="101" height="30" as="geometry" />
        </mxCell>
        <mxCell id="hv76raOZ1HIrlFXWzZwD-228" value="" style="shape=sumEllipse;perimeter=ellipsePerimeter;html=1;backgroundOutline=1;" vertex="1" parent="hv76raOZ1HIrlFXWzZwD-230">
          <mxGeometry width="30" height="30" as="geometry" />
        </mxCell>
        <mxCell id="hv76raOZ1HIrlFXWzZwD-231" style="edgeStyle=orthogonalEdgeStyle;rounded=0;orthogonalLoop=1;jettySize=auto;html=1;entryX=0;entryY=0.5;entryDx=0;entryDy=0;" edge="1" parent="fqJWR_jfEDpAS1yq1Xmd-133" source="hv76raOZ1HIrlFXWzZwD-155" target="hv76raOZ1HIrlFXWzZwD-228">
          <mxGeometry relative="1" as="geometry" />
        </mxCell>
        <mxCell id="hv76raOZ1HIrlFXWzZwD-232" value="yes" style="edgeLabel;html=1;align=center;verticalAlign=middle;resizable=0;points=[];" vertex="1" connectable="0" parent="hv76raOZ1HIrlFXWzZwD-231">
          <mxGeometry x="-0.06" relative="1" as="geometry">
            <mxPoint as="offset" />
          </mxGeometry>
        </mxCell>
        <mxCell id="hv76raOZ1HIrlFXWzZwD-233" style="edgeStyle=orthogonalEdgeStyle;rounded=0;orthogonalLoop=1;jettySize=auto;html=1;entryX=0.5;entryY=0;entryDx=0;entryDy=0;" edge="1" parent="fqJWR_jfEDpAS1yq1Xmd-133" source="hv76raOZ1HIrlFXWzZwD-155" target="hv76raOZ1HIrlFXWzZwD-137">
          <mxGeometry relative="1" as="geometry" />
        </mxCell>
        <mxCell id="hv76raOZ1HIrlFXWzZwD-234" value="no" style="edgeLabel;html=1;align=center;verticalAlign=middle;resizable=0;points=[];" vertex="1" connectable="0" parent="hv76raOZ1HIrlFXWzZwD-233">
          <mxGeometry x="-0.5117" y="-1" relative="1" as="geometry">
            <mxPoint x="1" as="offset" />
          </mxGeometry>
        </mxCell>
        <mxCell id="hv76raOZ1HIrlFXWzZwD-235" value="" style="group" vertex="1" connectable="0" parent="fqJWR_jfEDpAS1yq1Xmd-133">
          <mxGeometry x="278" y="695" width="73" height="30" as="geometry" />
        </mxCell>
        <mxCell id="fqJWR_jfEDpAS1yq1Xmd-136" value="" style="ellipse;html=1;shape=endState;fillColor=strokeColor;" parent="hv76raOZ1HIrlFXWzZwD-235" vertex="1">
          <mxGeometry width="30" height="30" as="geometry" />
        </mxCell>
        <mxCell id="fqJWR_jfEDpAS1yq1Xmd-139" value="end" style="text;html=1;align=center;verticalAlign=middle;whiteSpace=wrap;rounded=0;" parent="hv76raOZ1HIrlFXWzZwD-235" vertex="1">
          <mxGeometry x="30" width="43" height="30" as="geometry" />
        </mxCell>
        <mxCell id="fqJWR_jfEDpAS1yq1Xmd-159" value="&lt;span style=&quot;text-align: left;&quot;&gt;&lt;b&gt;write symlinks&lt;/b&gt;&lt;/span&gt;" style="shape=umlFrame;whiteSpace=wrap;html=1;pointerEvents=0;recursiveResize=0;container=1;collapsible=0;width=160;" parent="1" vertex="1">
          <mxGeometry x="3" y="-1169" width="340" height="689" as="geometry" />
        </mxCell>
        <mxCell id="fqJWR_jfEDpAS1yq1Xmd-93" value="" style="ellipse;html=1;shape=endState;fillColor=strokeColor;" parent="fqJWR_jfEDpAS1yq1Xmd-159" vertex="1">
          <mxGeometry x="75" y="619" width="30" height="30" as="geometry" />
        </mxCell>
        <mxCell id="fqJWR_jfEDpAS1yq1Xmd-240" value="&lt;b&gt;&lt;font style=&quot;font-size: 9px;&quot;&gt;syncutils.write_symlinks&lt;/font&gt;&lt;/b&gt;" style="text;html=1;align=center;verticalAlign=middle;whiteSpace=wrap;rounded=0;" parent="fqJWR_jfEDpAS1yq1Xmd-159" vertex="1">
          <mxGeometry y="29" width="130" height="30" as="geometry" />
        </mxCell>
        <mxCell id="hv76raOZ1HIrlFXWzZwD-67" style="edgeStyle=orthogonalEdgeStyle;rounded=0;orthogonalLoop=1;jettySize=auto;html=1;entryX=0.5;entryY=0;entryDx=0;entryDy=0;dashed=1;" edge="1" parent="fqJWR_jfEDpAS1yq1Xmd-159" source="hv76raOZ1HIrlFXWzZwD-62" target="fqJWR_jfEDpAS1yq1Xmd-85">
          <mxGeometry relative="1" as="geometry" />
        </mxCell>
        <mxCell id="hv76raOZ1HIrlFXWzZwD-68" value="input" style="edgeLabel;html=1;align=center;verticalAlign=middle;resizable=0;points=[];" vertex="1" connectable="0" parent="hv76raOZ1HIrlFXWzZwD-67">
          <mxGeometry x="-0.0282" y="2" relative="1" as="geometry">
            <mxPoint x="2" y="-2" as="offset" />
          </mxGeometry>
        </mxCell>
        <mxCell id="hv76raOZ1HIrlFXWzZwD-62" value="&lt;b&gt;target folder path&lt;/b&gt;&lt;div&gt;&lt;b&gt;link folder path&lt;/b&gt;&lt;/div&gt;&lt;div&gt;&lt;b&gt;link names (optional)&lt;/b&gt;&lt;/div&gt;" style="html=1;whiteSpace=wrap;fillColor=#8BC478;" vertex="1" parent="fqJWR_jfEDpAS1yq1Xmd-159">
          <mxGeometry x="168" y="39" width="133" height="61" as="geometry" />
        </mxCell>
        <mxCell id="hv76raOZ1HIrlFXWzZwD-69" value="" style="group" vertex="1" connectable="0" parent="fqJWR_jfEDpAS1yq1Xmd-159">
          <mxGeometry x="40" y="89" width="75" height="30" as="geometry" />
        </mxCell>
        <mxCell id="fqJWR_jfEDpAS1yq1Xmd-85" value="" style="ellipse;fillColor=strokeColor;html=1;" parent="hv76raOZ1HIrlFXWzZwD-69" vertex="1">
          <mxGeometry x="45" width="30" height="30" as="geometry" />
        </mxCell>
        <mxCell id="fqJWR_jfEDpAS1yq1Xmd-94" value="start" style="text;html=1;align=center;verticalAlign=middle;whiteSpace=wrap;rounded=0;" parent="hv76raOZ1HIrlFXWzZwD-69" vertex="1">
          <mxGeometry width="45" height="30" as="geometry" />
        </mxCell>
        <mxCell id="hv76raOZ1HIrlFXWzZwD-75" style="edgeStyle=orthogonalEdgeStyle;rounded=0;orthogonalLoop=1;jettySize=auto;html=1;" edge="1" parent="fqJWR_jfEDpAS1yq1Xmd-159" source="hv76raOZ1HIrlFXWzZwD-51" target="hv76raOZ1HIrlFXWzZwD-50">
          <mxGeometry relative="1" as="geometry" />
        </mxCell>
        <mxCell id="hv76raOZ1HIrlFXWzZwD-76" value="no" style="edgeLabel;html=1;align=center;verticalAlign=middle;resizable=0;points=[];" vertex="1" connectable="0" parent="hv76raOZ1HIrlFXWzZwD-75">
          <mxGeometry x="-0.1423" y="-1" relative="1" as="geometry">
            <mxPoint as="offset" />
          </mxGeometry>
        </mxCell>
        <mxCell id="hv76raOZ1HIrlFXWzZwD-51" value="" style="group;align=left;movable=1;resizable=1;rotatable=1;deletable=1;editable=1;locked=0;connectable=1;" vertex="1" connectable="0" parent="fqJWR_jfEDpAS1yq1Xmd-159">
          <mxGeometry x="20" y="139" width="95" height="40" as="geometry" />
        </mxCell>
        <mxCell id="hv76raOZ1HIrlFXWzZwD-52" value="link folder exists?" style="text;html=1;align=center;verticalAlign=middle;whiteSpace=wrap;rounded=0;" vertex="1" parent="hv76raOZ1HIrlFXWzZwD-51">
          <mxGeometry x="5" width="60" height="40" as="geometry" />
        </mxCell>
        <mxCell id="hv76raOZ1HIrlFXWzZwD-53" value="" style="rhombus;" vertex="1" parent="hv76raOZ1HIrlFXWzZwD-51">
          <mxGeometry x="65" y="5" width="30" height="30" as="geometry" />
        </mxCell>
        <mxCell id="hv76raOZ1HIrlFXWzZwD-80" value="" style="edgeStyle=orthogonalEdgeStyle;rounded=0;orthogonalLoop=1;jettySize=auto;html=1;" edge="1" parent="fqJWR_jfEDpAS1yq1Xmd-159" source="hv76raOZ1HIrlFXWzZwD-50" target="hv76raOZ1HIrlFXWzZwD-54">
          <mxGeometry relative="1" as="geometry" />
        </mxCell>
        <mxCell id="hv76raOZ1HIrlFXWzZwD-50" value="create link folder" style="html=1;dashed=0;rounded=1;absoluteArcSize=1;arcSize=20;verticalAlign=middle;align=center;whiteSpace=wrap;" vertex="1" parent="fqJWR_jfEDpAS1yq1Xmd-159">
          <mxGeometry x="163.5" y="143.5" width="123" height="31" as="geometry" />
        </mxCell>
        <mxCell id="hv76raOZ1HIrlFXWzZwD-81" style="edgeStyle=orthogonalEdgeStyle;rounded=0;orthogonalLoop=1;jettySize=auto;html=1;entryX=0.5;entryY=0;entryDx=0;entryDy=0;exitX=0.005;exitY=0.689;exitDx=0;exitDy=0;dashed=1;exitPerimeter=0;" edge="1" parent="fqJWR_jfEDpAS1yq1Xmd-159" source="hv76raOZ1HIrlFXWzZwD-54" target="hv76raOZ1HIrlFXWzZwD-61">
          <mxGeometry relative="1" as="geometry">
            <Array as="points">
              <mxPoint x="161" y="239" />
              <mxPoint x="78" y="239" />
            </Array>
          </mxGeometry>
        </mxCell>
        <mxCell id="hv76raOZ1HIrlFXWzZwD-82" value="output" style="edgeLabel;html=1;align=center;verticalAlign=middle;resizable=0;points=[];" vertex="1" connectable="0" parent="hv76raOZ1HIrlFXWzZwD-81">
          <mxGeometry x="-0.0906" y="1" relative="1" as="geometry">
            <mxPoint as="offset" />
          </mxGeometry>
        </mxCell>
        <mxCell id="hv76raOZ1HIrlFXWzZwD-83" style="edgeStyle=orthogonalEdgeStyle;rounded=0;orthogonalLoop=1;jettySize=auto;html=1;entryX=0.5;entryY=0;entryDx=0;entryDy=0;" edge="1" parent="fqJWR_jfEDpAS1yq1Xmd-159" source="hv76raOZ1HIrlFXWzZwD-54" target="hv76raOZ1HIrlFXWzZwD-57">
          <mxGeometry relative="1" as="geometry" />
        </mxCell>
        <mxCell id="hv76raOZ1HIrlFXWzZwD-54" value="get sorted subdirectoty names from target folders" style="html=1;dashed=0;rounded=1;absoluteArcSize=1;arcSize=20;verticalAlign=middle;align=center;whiteSpace=wrap;" vertex="1" parent="fqJWR_jfEDpAS1yq1Xmd-159">
          <mxGeometry x="160" y="199" width="130" height="61" as="geometry" />
        </mxCell>
        <mxCell id="hv76raOZ1HIrlFXWzZwD-61" value="&lt;b&gt;target items&lt;/b&gt;" style="html=1;whiteSpace=wrap;fillColor=#E5D4E8;gradientColor=#8BC478;gradientDirection=west;" vertex="1" parent="fqJWR_jfEDpAS1yq1Xmd-159">
          <mxGeometry x="32.5" y="259" width="90" height="43" as="geometry" />
        </mxCell>
        <mxCell id="hv76raOZ1HIrlFXWzZwD-92" style="edgeStyle=orthogonalEdgeStyle;rounded=0;orthogonalLoop=1;jettySize=auto;html=1;entryX=0.5;entryY=0;entryDx=0;entryDy=0;" edge="1" parent="fqJWR_jfEDpAS1yq1Xmd-159" source="hv76raOZ1HIrlFXWzZwD-63" target="hv76raOZ1HIrlFXWzZwD-64">
          <mxGeometry relative="1" as="geometry" />
        </mxCell>
        <mxCell id="hv76raOZ1HIrlFXWzZwD-63" value="set link names to names of target items" style="html=1;dashed=0;rounded=1;absoluteArcSize=1;arcSize=20;verticalAlign=middle;align=center;whiteSpace=wrap;" vertex="1" parent="fqJWR_jfEDpAS1yq1Xmd-159">
          <mxGeometry x="25" y="349" width="130" height="50" as="geometry" />
        </mxCell>
        <mxCell id="hv76raOZ1HIrlFXWzZwD-103" style="edgeStyle=orthogonalEdgeStyle;rounded=0;orthogonalLoop=1;jettySize=auto;html=1;entryX=0.5;entryY=0;entryDx=0;entryDy=0;" edge="1" parent="fqJWR_jfEDpAS1yq1Xmd-159" source="hv76raOZ1HIrlFXWzZwD-64" target="hv76raOZ1HIrlFXWzZwD-65">
          <mxGeometry relative="1" as="geometry" />
        </mxCell>
        <mxCell id="hv76raOZ1HIrlFXWzZwD-64" value="for each pair&amp;nbsp;&lt;div&gt;(link_name, target_item):&lt;div&gt;&lt;b&gt;write_symlink&lt;/b&gt;&lt;/div&gt;&lt;/div&gt;" style="html=1;dashed=0;rounded=1;absoluteArcSize=1;arcSize=20;verticalAlign=middle;align=center;whiteSpace=wrap;" vertex="1" parent="fqJWR_jfEDpAS1yq1Xmd-159">
          <mxGeometry x="20" y="436" width="140" height="60" as="geometry" />
        </mxCell>
        <mxCell id="hv76raOZ1HIrlFXWzZwD-104" style="edgeStyle=orthogonalEdgeStyle;rounded=0;orthogonalLoop=1;jettySize=auto;html=1;entryX=0.5;entryY=0;entryDx=0;entryDy=0;" edge="1" parent="fqJWR_jfEDpAS1yq1Xmd-159" source="hv76raOZ1HIrlFXWzZwD-65" target="fqJWR_jfEDpAS1yq1Xmd-93">
          <mxGeometry relative="1" as="geometry" />
        </mxCell>
        <mxCell id="hv76raOZ1HIrlFXWzZwD-65" value="increment symlink count" style="html=1;dashed=0;rounded=1;absoluteArcSize=1;arcSize=20;verticalAlign=middle;align=center;whiteSpace=wrap;" vertex="1" parent="fqJWR_jfEDpAS1yq1Xmd-159">
          <mxGeometry x="25" y="529" width="130" height="50" as="geometry" />
        </mxCell>
        <mxCell id="hv76raOZ1HIrlFXWzZwD-66" value="symlink count" style="html=1;whiteSpace=wrap;fillColor=#E5D4E8;fontStyle=1" vertex="1" parent="fqJWR_jfEDpAS1yq1Xmd-159">
          <mxGeometry x="147" y="609" width="110" height="50" as="geometry" />
        </mxCell>
        <mxCell id="hv76raOZ1HIrlFXWzZwD-74" style="edgeStyle=orthogonalEdgeStyle;rounded=0;orthogonalLoop=1;jettySize=auto;html=1;entryX=0.5;entryY=0;entryDx=0;entryDy=0;" edge="1" parent="fqJWR_jfEDpAS1yq1Xmd-159" source="fqJWR_jfEDpAS1yq1Xmd-85" target="hv76raOZ1HIrlFXWzZwD-53">
          <mxGeometry relative="1" as="geometry" />
        </mxCell>
        <mxCell id="hv76raOZ1HIrlFXWzZwD-77" style="edgeStyle=orthogonalEdgeStyle;rounded=0;orthogonalLoop=1;jettySize=auto;html=1;entryX=0.004;entryY=0.328;entryDx=0;entryDy=0;entryPerimeter=0;exitX=0.5;exitY=1;exitDx=0;exitDy=0;" edge="1" parent="fqJWR_jfEDpAS1yq1Xmd-159" source="hv76raOZ1HIrlFXWzZwD-53" target="hv76raOZ1HIrlFXWzZwD-54">
          <mxGeometry relative="1" as="geometry" />
        </mxCell>
        <mxCell id="hv76raOZ1HIrlFXWzZwD-78" value="yes" style="edgeLabel;html=1;align=center;verticalAlign=middle;resizable=0;points=[];" vertex="1" connectable="0" parent="hv76raOZ1HIrlFXWzZwD-77">
          <mxGeometry x="-0.5491" relative="1" as="geometry">
            <mxPoint as="offset" />
          </mxGeometry>
        </mxCell>
        <mxCell id="hv76raOZ1HIrlFXWzZwD-84" style="edgeStyle=orthogonalEdgeStyle;rounded=0;orthogonalLoop=1;jettySize=auto;html=1;entryX=0.815;entryY=-0.016;entryDx=0;entryDy=0;entryPerimeter=0;" edge="1" parent="fqJWR_jfEDpAS1yq1Xmd-159" source="hv76raOZ1HIrlFXWzZwD-57" target="hv76raOZ1HIrlFXWzZwD-63">
          <mxGeometry relative="1" as="geometry" />
        </mxCell>
        <mxCell id="hv76raOZ1HIrlFXWzZwD-85" value="no" style="edgeLabel;html=1;align=center;verticalAlign=middle;resizable=0;points=[];" vertex="1" connectable="0" parent="hv76raOZ1HIrlFXWzZwD-84">
          <mxGeometry x="-0.4462" y="-1" relative="1" as="geometry">
            <mxPoint as="offset" />
          </mxGeometry>
        </mxCell>
        <mxCell id="hv76raOZ1HIrlFXWzZwD-86" style="edgeStyle=orthogonalEdgeStyle;rounded=0;orthogonalLoop=1;jettySize=auto;html=1;entryX=0.401;entryY=-0.047;entryDx=0;entryDy=0;entryPerimeter=0;dashed=1;" edge="1" parent="fqJWR_jfEDpAS1yq1Xmd-159" source="hv76raOZ1HIrlFXWzZwD-61" target="hv76raOZ1HIrlFXWzZwD-63">
          <mxGeometry relative="1" as="geometry" />
        </mxCell>
        <mxCell id="hv76raOZ1HIrlFXWzZwD-87" value="input" style="edgeLabel;html=1;align=center;verticalAlign=middle;resizable=0;points=[];" vertex="1" connectable="0" parent="hv76raOZ1HIrlFXWzZwD-86">
          <mxGeometry x="-0.0746" y="1" relative="1" as="geometry">
            <mxPoint as="offset" />
          </mxGeometry>
        </mxCell>
        <mxCell id="hv76raOZ1HIrlFXWzZwD-88" value="" style="group" vertex="1" connectable="0" parent="fqJWR_jfEDpAS1yq1Xmd-159">
          <mxGeometry x="210" y="299" width="97" height="40" as="geometry" />
        </mxCell>
        <mxCell id="hv76raOZ1HIrlFXWzZwD-56" value="link names provided?" style="text;html=1;align=center;verticalAlign=middle;whiteSpace=wrap;rounded=0;" vertex="1" parent="hv76raOZ1HIrlFXWzZwD-88">
          <mxGeometry x="37" width="60" height="40" as="geometry" />
        </mxCell>
        <mxCell id="hv76raOZ1HIrlFXWzZwD-57" value="" style="rhombus;" vertex="1" parent="hv76raOZ1HIrlFXWzZwD-88">
          <mxGeometry y="5" width="30" height="30" as="geometry" />
        </mxCell>
        <mxCell id="hv76raOZ1HIrlFXWzZwD-89" value="" style="group" vertex="1" connectable="0" parent="fqJWR_jfEDpAS1yq1Xmd-159">
          <mxGeometry x="210" y="399" width="107" height="40" as="geometry" />
        </mxCell>
        <mxCell id="hv76raOZ1HIrlFXWzZwD-59" value="link names is a tuple same length as target items?" style="text;html=1;align=center;verticalAlign=middle;whiteSpace=wrap;rounded=0;" vertex="1" parent="hv76raOZ1HIrlFXWzZwD-89">
          <mxGeometry x="37" width="70" height="40" as="geometry" />
        </mxCell>
        <mxCell id="hv76raOZ1HIrlFXWzZwD-60" value="" style="rhombus;" vertex="1" parent="hv76raOZ1HIrlFXWzZwD-89">
          <mxGeometry width="30" height="30" as="geometry" />
        </mxCell>
        <mxCell id="hv76raOZ1HIrlFXWzZwD-90" style="edgeStyle=orthogonalEdgeStyle;rounded=0;orthogonalLoop=1;jettySize=auto;html=1;entryX=0.5;entryY=0;entryDx=0;entryDy=0;" edge="1" parent="fqJWR_jfEDpAS1yq1Xmd-159" source="hv76raOZ1HIrlFXWzZwD-57" target="hv76raOZ1HIrlFXWzZwD-60">
          <mxGeometry relative="1" as="geometry" />
        </mxCell>
        <mxCell id="hv76raOZ1HIrlFXWzZwD-91" value="yes" style="edgeLabel;html=1;align=center;verticalAlign=middle;resizable=0;points=[];" vertex="1" connectable="0" parent="hv76raOZ1HIrlFXWzZwD-90">
          <mxGeometry x="-0.4159" y="-1" relative="1" as="geometry">
            <mxPoint y="10" as="offset" />
          </mxGeometry>
        </mxCell>
        <mxCell id="hv76raOZ1HIrlFXWzZwD-93" style="edgeStyle=orthogonalEdgeStyle;rounded=0;orthogonalLoop=1;jettySize=auto;html=1;entryX=0.5;entryY=0;entryDx=0;entryDy=0;" edge="1" parent="fqJWR_jfEDpAS1yq1Xmd-159" source="hv76raOZ1HIrlFXWzZwD-60" target="hv76raOZ1HIrlFXWzZwD-64">
          <mxGeometry relative="1" as="geometry" />
        </mxCell>
        <mxCell id="hv76raOZ1HIrlFXWzZwD-94" value="yes" style="edgeLabel;html=1;align=center;verticalAlign=middle;resizable=0;points=[];" vertex="1" connectable="0" parent="hv76raOZ1HIrlFXWzZwD-93">
          <mxGeometry x="-0.3437" y="1" relative="1" as="geometry">
            <mxPoint y="-1" as="offset" />
          </mxGeometry>
        </mxCell>
        <mxCell id="hv76raOZ1HIrlFXWzZwD-97" value="" style="group" vertex="1" connectable="0" parent="fqJWR_jfEDpAS1yq1Xmd-159">
          <mxGeometry x="210" y="486" width="95" height="30" as="geometry" />
        </mxCell>
        <mxCell id="hv76raOZ1HIrlFXWzZwD-98" value="raise Type Error" style="text;html=1;align=center;verticalAlign=middle;whiteSpace=wrap;rounded=0;" vertex="1" parent="hv76raOZ1HIrlFXWzZwD-97">
          <mxGeometry x="37" width="65" height="30" as="geometry" />
        </mxCell>
        <mxCell id="hv76raOZ1HIrlFXWzZwD-99" value="" style="shape=sumEllipse;perimeter=ellipsePerimeter;html=1;backgroundOutline=1;" vertex="1" parent="hv76raOZ1HIrlFXWzZwD-97">
          <mxGeometry width="30" height="30" as="geometry" />
        </mxCell>
        <mxCell id="hv76raOZ1HIrlFXWzZwD-101" style="edgeStyle=orthogonalEdgeStyle;rounded=0;orthogonalLoop=1;jettySize=auto;html=1;entryX=0.5;entryY=0;entryDx=0;entryDy=0;" edge="1" parent="fqJWR_jfEDpAS1yq1Xmd-159" source="hv76raOZ1HIrlFXWzZwD-60" target="hv76raOZ1HIrlFXWzZwD-99">
          <mxGeometry relative="1" as="geometry" />
        </mxCell>
        <mxCell id="hv76raOZ1HIrlFXWzZwD-102" value="no" style="edgeLabel;html=1;align=center;verticalAlign=middle;resizable=0;points=[];" vertex="1" connectable="0" parent="hv76raOZ1HIrlFXWzZwD-101">
          <mxGeometry x="-0.0526" y="-1" relative="1" as="geometry">
            <mxPoint as="offset" />
          </mxGeometry>
        </mxCell>
        <mxCell id="hv76raOZ1HIrlFXWzZwD-105" style="edgeStyle=orthogonalEdgeStyle;rounded=0;orthogonalLoop=1;jettySize=auto;html=1;exitX=1;exitY=0.5;exitDx=0;exitDy=0;entryX=-0.021;entryY=0.513;entryDx=0;entryDy=0;entryPerimeter=0;endArrow=none;startFill=0;dashed=1;" edge="1" parent="fqJWR_jfEDpAS1yq1Xmd-159" source="fqJWR_jfEDpAS1yq1Xmd-93" target="hv76raOZ1HIrlFXWzZwD-66">
          <mxGeometry relative="1" as="geometry" />
        </mxCell>
        <mxCell id="fqJWR_jfEDpAS1yq1Xmd-198" value="&lt;b&gt;prepare symlinks&lt;/b&gt;" style="shape=umlFrame;whiteSpace=wrap;html=1;pointerEvents=0;recursiveResize=0;container=1;collapsible=0;width=160;align=center;" parent="1" vertex="1">
          <mxGeometry x="3" y="-1590" width="820" height="346" as="geometry" />
        </mxCell>
        <mxCell id="fqJWR_jfEDpAS1yq1Xmd-208" style="edgeStyle=orthogonalEdgeStyle;rounded=0;orthogonalLoop=1;jettySize=auto;html=1;entryX=0.5;entryY=0;entryDx=0;entryDy=0;dashed=1;exitX=0.5;exitY=1;exitDx=0;exitDy=0;" parent="fqJWR_jfEDpAS1yq1Xmd-198" source="fqJWR_jfEDpAS1yq1Xmd-205" target="hv76raOZ1HIrlFXWzZwD-3" edge="1">
          <mxGeometry relative="1" as="geometry">
            <mxPoint x="225" y="165.5" as="targetPoint" />
          </mxGeometry>
        </mxCell>
        <mxCell id="fqJWR_jfEDpAS1yq1Xmd-209" value="input" style="edgeLabel;html=1;align=center;verticalAlign=middle;resizable=0;points=[];" parent="fqJWR_jfEDpAS1yq1Xmd-208" vertex="1" connectable="0">
          <mxGeometry x="-0.3992" relative="1" as="geometry">
            <mxPoint y="2" as="offset" />
          </mxGeometry>
        </mxCell>
        <mxCell id="fqJWR_jfEDpAS1yq1Xmd-205" value="&lt;b&gt;config.symlinks.job_id&lt;/b&gt;" style="html=1;whiteSpace=wrap;fillColor=#8BC478;align=left;" parent="fqJWR_jfEDpAS1yq1Xmd-198" vertex="1">
          <mxGeometry x="150" y="60" width="140" height="40" as="geometry" />
        </mxCell>
        <mxCell id="fqJWR_jfEDpAS1yq1Xmd-206" value="&lt;b&gt;config.symlinks.job_id&lt;br&gt;&lt;/b&gt;&lt;div&gt;&lt;b style=&quot;background-color: transparent; color: light-dark(rgb(0, 0, 0), rgb(255, 255, 255));&quot;&gt;job_id&lt;/b&gt;.link_folder&lt;/div&gt;" style="html=1;whiteSpace=wrap;fillColor=#8BC478;align=left;" parent="fqJWR_jfEDpAS1yq1Xmd-198" vertex="1">
          <mxGeometry x="591" y="55.5" width="138" height="49" as="geometry" />
        </mxCell>
        <mxCell id="fqJWR_jfEDpAS1yq1Xmd-207" style="edgeStyle=orthogonalEdgeStyle;rounded=0;orthogonalLoop=1;jettySize=auto;html=1;entryX=0.048;entryY=0.533;entryDx=0;entryDy=0;entryPerimeter=0;" parent="fqJWR_jfEDpAS1yq1Xmd-198" source="fqJWR_jfEDpAS1yq1Xmd-203" target="hv76raOZ1HIrlFXWzZwD-2" edge="1">
          <mxGeometry relative="1" as="geometry">
            <mxPoint x="107.5" y="186" as="targetPoint" />
          </mxGeometry>
        </mxCell>
        <mxCell id="fqJWR_jfEDpAS1yq1Xmd-211" style="edgeStyle=orthogonalEdgeStyle;rounded=0;orthogonalLoop=1;jettySize=auto;html=1;endArrow=none;endFill=0;dashed=1;exitX=0.454;exitY=0.995;exitDx=0;exitDy=0;exitPerimeter=0;" parent="fqJWR_jfEDpAS1yq1Xmd-198" source="fqJWR_jfEDpAS1yq1Xmd-210" target="fqJWR_jfEDpAS1yq1Xmd-203" edge="1">
          <mxGeometry relative="1" as="geometry" />
        </mxCell>
        <mxCell id="fqJWR_jfEDpAS1yq1Xmd-210" value="&lt;b&gt;config file&lt;/b&gt;" style="html=1;whiteSpace=wrap;fillColor=#8BC478;" parent="fqJWR_jfEDpAS1yq1Xmd-198" vertex="1">
          <mxGeometry x="13" y="75" width="110" height="50" as="geometry" />
        </mxCell>
        <mxCell id="fqJWR_jfEDpAS1yq1Xmd-214" style="edgeStyle=orthogonalEdgeStyle;rounded=0;orthogonalLoop=1;jettySize=auto;html=1;entryX=0.459;entryY=0.049;entryDx=0;entryDy=0;dashed=1;exitX=0.393;exitY=1.021;exitDx=0;exitDy=0;exitPerimeter=0;entryPerimeter=0;" parent="fqJWR_jfEDpAS1yq1Xmd-198" source="fqJWR_jfEDpAS1yq1Xmd-206" target="hv76raOZ1HIrlFXWzZwD-10" edge="1">
          <mxGeometry relative="1" as="geometry">
            <mxPoint x="462" y="165.5" as="targetPoint" />
          </mxGeometry>
        </mxCell>
        <mxCell id="fqJWR_jfEDpAS1yq1Xmd-215" value="input" style="edgeLabel;html=1;align=center;verticalAlign=middle;resizable=0;points=[];" parent="fqJWR_jfEDpAS1yq1Xmd-214" vertex="1" connectable="0">
          <mxGeometry x="-0.2261" y="-1" relative="1" as="geometry">
            <mxPoint as="offset" />
          </mxGeometry>
        </mxCell>
        <mxCell id="fqJWR_jfEDpAS1yq1Xmd-233" value="" style="group" parent="fqJWR_jfEDpAS1yq1Xmd-198" vertex="1" connectable="0">
          <mxGeometry x="742.5" y="141" width="55" height="60" as="geometry" />
        </mxCell>
        <mxCell id="fqJWR_jfEDpAS1yq1Xmd-229" value="end" style="text;html=1;align=center;verticalAlign=middle;whiteSpace=wrap;rounded=0;" parent="fqJWR_jfEDpAS1yq1Xmd-233" vertex="1">
          <mxGeometry width="55" height="30" as="geometry" />
        </mxCell>
        <mxCell id="fqJWR_jfEDpAS1yq1Xmd-228" value="" style="ellipse;html=1;shape=endState;fillColor=strokeColor;" parent="fqJWR_jfEDpAS1yq1Xmd-233" vertex="1">
          <mxGeometry x="12.5" y="30" width="30" height="30" as="geometry" />
        </mxCell>
        <mxCell id="fqJWR_jfEDpAS1yq1Xmd-235" value="&lt;font style=&quot;font-size: 9px;&quot;&gt;&lt;b&gt;pipeline.prepare_symlinks&lt;/b&gt;&lt;/font&gt;" style="text;html=1;align=center;verticalAlign=middle;whiteSpace=wrap;rounded=0;" parent="fqJWR_jfEDpAS1yq1Xmd-198" vertex="1">
          <mxGeometry x="6" y="32" width="120" height="19" as="geometry" />
        </mxCell>
        <mxCell id="fqJWR_jfEDpAS1yq1Xmd-372" value="" style="group" parent="fqJWR_jfEDpAS1yq1Xmd-198" vertex="1" connectable="0">
          <mxGeometry x="43.5" y="171" width="34.5" height="59" as="geometry" />
        </mxCell>
        <mxCell id="fqJWR_jfEDpAS1yq1Xmd-204" value="start" style="text;html=1;align=center;verticalAlign=middle;whiteSpace=wrap;rounded=0;" parent="fqJWR_jfEDpAS1yq1Xmd-372" vertex="1">
          <mxGeometry y="30" width="34.5" height="29" as="geometry" />
        </mxCell>
        <mxCell id="fqJWR_jfEDpAS1yq1Xmd-203" value="" style="ellipse;fillColor=strokeColor;html=1;" parent="fqJWR_jfEDpAS1yq1Xmd-372" vertex="1">
          <mxGeometry x="4.5" width="30" height="30" as="geometry" />
        </mxCell>
        <mxCell id="hv76raOZ1HIrlFXWzZwD-1" value="" style="group;align=left;" vertex="1" connectable="0" parent="fqJWR_jfEDpAS1yq1Xmd-198">
          <mxGeometry x="140" y="165.5" width="95" height="40" as="geometry" />
        </mxCell>
        <mxCell id="hv76raOZ1HIrlFXWzZwD-2" value="job_id in&amp;nbsp;&lt;span style=&quot;background-color: transparent; color: light-dark(rgb(0, 0, 0), rgb(255, 255, 255));&quot;&gt;EM27 instrument list*?&lt;/span&gt;" style="text;html=1;align=center;verticalAlign=middle;whiteSpace=wrap;rounded=0;" vertex="1" parent="hv76raOZ1HIrlFXWzZwD-1">
          <mxGeometry width="60" height="40" as="geometry" />
        </mxCell>
        <mxCell id="hv76raOZ1HIrlFXWzZwD-3" value="" style="rhombus;" vertex="1" parent="hv76raOZ1HIrlFXWzZwD-1">
          <mxGeometry x="65" y="5" width="30" height="30" as="geometry" />
        </mxCell>
        <mxCell id="hv76raOZ1HIrlFXWzZwD-40" style="edgeStyle=orthogonalEdgeStyle;rounded=0;orthogonalLoop=1;jettySize=auto;html=1;entryX=0;entryY=0.5;entryDx=0;entryDy=0;" edge="1" parent="fqJWR_jfEDpAS1yq1Xmd-198" source="hv76raOZ1HIrlFXWzZwD-4" target="hv76raOZ1HIrlFXWzZwD-6">
          <mxGeometry relative="1" as="geometry">
            <Array as="points">
              <mxPoint x="417" y="186" />
              <mxPoint x="417" y="120" />
              <mxPoint x="437" y="120" />
            </Array>
          </mxGeometry>
        </mxCell>
        <mxCell id="hv76raOZ1HIrlFXWzZwD-4" value="get sorted subdirectoty names from target folders" style="html=1;dashed=0;rounded=1;absoluteArcSize=1;arcSize=20;verticalAlign=middle;align=center;whiteSpace=wrap;" vertex="1" parent="fqJWR_jfEDpAS1yq1Xmd-198">
          <mxGeometry x="277" y="155" width="130" height="61" as="geometry" />
        </mxCell>
        <mxCell id="hv76raOZ1HIrlFXWzZwD-15" value="&lt;b&gt;config.symlinks.job_id&lt;br&gt;&lt;/b&gt;&lt;div&gt;&lt;b style=&quot;background-color: transparent; color: light-dark(rgb(0, 0, 0), rgb(255, 255, 255));&quot;&gt;job_id&lt;/b&gt;.target_folders&lt;/div&gt;" style="html=1;whiteSpace=wrap;fillColor=#8BC478;align=left;" vertex="1" parent="fqJWR_jfEDpAS1yq1Xmd-198">
          <mxGeometry x="315" y="26" width="140" height="49" as="geometry" />
        </mxCell>
        <mxCell id="hv76raOZ1HIrlFXWzZwD-46" style="edgeStyle=orthogonalEdgeStyle;rounded=0;orthogonalLoop=1;jettySize=auto;html=1;entryX=0.5;entryY=0;entryDx=0;entryDy=0;" edge="1" parent="fqJWR_jfEDpAS1yq1Xmd-198" source="hv76raOZ1HIrlFXWzZwD-5" target="hv76raOZ1HIrlFXWzZwD-9">
          <mxGeometry relative="1" as="geometry" />
        </mxCell>
        <mxCell id="hv76raOZ1HIrlFXWzZwD-5" value="extract dates from subfolder names" style="html=1;dashed=0;rounded=1;absoluteArcSize=1;arcSize=20;verticalAlign=middle;align=center;whiteSpace=wrap;" vertex="1" parent="fqJWR_jfEDpAS1yq1Xmd-198">
          <mxGeometry x="437" y="165.5" width="130" height="41" as="geometry" />
        </mxCell>
        <mxCell id="hv76raOZ1HIrlFXWzZwD-43" style="edgeStyle=orthogonalEdgeStyle;rounded=0;orthogonalLoop=1;jettySize=auto;html=1;entryX=0.5;entryY=0;entryDx=0;entryDy=0;" edge="1" parent="fqJWR_jfEDpAS1yq1Xmd-198" source="hv76raOZ1HIrlFXWzZwD-6" target="hv76raOZ1HIrlFXWzZwD-5">
          <mxGeometry relative="1" as="geometry" />
        </mxCell>
        <mxCell id="hv76raOZ1HIrlFXWzZwD-6" value="generate link names from parsed dates" style="html=1;dashed=0;rounded=1;absoluteArcSize=1;arcSize=20;verticalAlign=middle;align=center;whiteSpace=wrap;" vertex="1" parent="fqJWR_jfEDpAS1yq1Xmd-198">
          <mxGeometry x="437" y="100" width="130" height="41" as="geometry" />
        </mxCell>
        <mxCell id="hv76raOZ1HIrlFXWzZwD-7" value="" style="group" vertex="1" connectable="0" parent="fqJWR_jfEDpAS1yq1Xmd-198">
          <mxGeometry x="422" y="227" width="95" height="40" as="geometry" />
        </mxCell>
        <mxCell id="hv76raOZ1HIrlFXWzZwD-8" value="error extracting date" style="text;html=1;align=center;verticalAlign=middle;whiteSpace=wrap;rounded=0;" vertex="1" parent="hv76raOZ1HIrlFXWzZwD-7">
          <mxGeometry width="60" height="40" as="geometry" />
        </mxCell>
        <mxCell id="hv76raOZ1HIrlFXWzZwD-9" value="" style="rhombus;" vertex="1" parent="hv76raOZ1HIrlFXWzZwD-7">
          <mxGeometry x="65" y="5" width="30" height="30" as="geometry" />
        </mxCell>
        <mxCell id="hv76raOZ1HIrlFXWzZwD-16" style="edgeStyle=orthogonalEdgeStyle;rounded=0;orthogonalLoop=1;jettySize=auto;html=1;entryX=0;entryY=0.5;entryDx=0;entryDy=0;" edge="1" parent="fqJWR_jfEDpAS1yq1Xmd-198" source="hv76raOZ1HIrlFXWzZwD-10" target="fqJWR_jfEDpAS1yq1Xmd-228">
          <mxGeometry relative="1" as="geometry" />
        </mxCell>
        <mxCell id="hv76raOZ1HIrlFXWzZwD-10" value="&lt;b&gt;write_symlink&lt;/b&gt;&lt;b&gt;s&lt;/b&gt;" style="html=1;dashed=0;rounded=1;absoluteArcSize=1;arcSize=20;verticalAlign=middle;align=center;whiteSpace=wrap;" vertex="1" parent="fqJWR_jfEDpAS1yq1Xmd-198">
          <mxGeometry x="591" y="165" width="130" height="41" as="geometry" />
        </mxCell>
        <mxCell id="hv76raOZ1HIrlFXWzZwD-19" value="" style="group" vertex="1" connectable="0" parent="fqJWR_jfEDpAS1yq1Xmd-198">
          <mxGeometry x="138" y="240" width="97" height="30" as="geometry" />
        </mxCell>
        <mxCell id="hv76raOZ1HIrlFXWzZwD-12" value="skip job" style="text;html=1;align=center;verticalAlign=middle;whiteSpace=wrap;rounded=0;container=0;" vertex="1" parent="hv76raOZ1HIrlFXWzZwD-19">
          <mxGeometry x="10" width="55" height="30" as="geometry" />
        </mxCell>
        <mxCell id="hv76raOZ1HIrlFXWzZwD-13" value="" style="shape=sumEllipse;perimeter=ellipsePerimeter;html=1;backgroundOutline=1;" vertex="1" parent="hv76raOZ1HIrlFXWzZwD-19">
          <mxGeometry x="67" width="30" height="30" as="geometry" />
        </mxCell>
        <mxCell id="hv76raOZ1HIrlFXWzZwD-20" style="edgeStyle=orthogonalEdgeStyle;rounded=0;orthogonalLoop=1;jettySize=auto;html=1;entryX=0.479;entryY=-0.003;entryDx=0;entryDy=0;dashed=1;exitX=0.174;exitY=1.02;exitDx=0;exitDy=0;entryPerimeter=0;exitPerimeter=0;" edge="1" parent="fqJWR_jfEDpAS1yq1Xmd-198" source="hv76raOZ1HIrlFXWzZwD-15" target="hv76raOZ1HIrlFXWzZwD-4">
          <mxGeometry relative="1" as="geometry">
            <mxPoint x="326.75" y="110" as="sourcePoint" />
            <mxPoint x="356.75" y="181" as="targetPoint" />
          </mxGeometry>
        </mxCell>
        <mxCell id="hv76raOZ1HIrlFXWzZwD-21" value="input" style="edgeLabel;html=1;align=center;verticalAlign=middle;resizable=0;points=[];" vertex="1" connectable="0" parent="hv76raOZ1HIrlFXWzZwD-20">
          <mxGeometry x="-0.3992" relative="1" as="geometry">
            <mxPoint y="2" as="offset" />
          </mxGeometry>
        </mxCell>
        <mxCell id="hv76raOZ1HIrlFXWzZwD-22" style="edgeStyle=orthogonalEdgeStyle;rounded=0;orthogonalLoop=1;jettySize=auto;html=1;" edge="1" parent="fqJWR_jfEDpAS1yq1Xmd-198" source="hv76raOZ1HIrlFXWzZwD-3" target="hv76raOZ1HIrlFXWzZwD-4">
          <mxGeometry relative="1" as="geometry" />
        </mxCell>
        <mxCell id="hv76raOZ1HIrlFXWzZwD-23" value="yes" style="edgeLabel;html=1;align=center;verticalAlign=middle;resizable=0;points=[];" vertex="1" connectable="0" parent="hv76raOZ1HIrlFXWzZwD-22">
          <mxGeometry x="-0.0476" y="1" relative="1" as="geometry">
            <mxPoint x="-4" as="offset" />
          </mxGeometry>
        </mxCell>
        <mxCell id="hv76raOZ1HIrlFXWzZwD-28" style="edgeStyle=orthogonalEdgeStyle;rounded=0;orthogonalLoop=1;jettySize=auto;html=1;entryX=0.5;entryY=0;entryDx=0;entryDy=0;" edge="1" parent="fqJWR_jfEDpAS1yq1Xmd-198" source="hv76raOZ1HIrlFXWzZwD-3" target="hv76raOZ1HIrlFXWzZwD-13">
          <mxGeometry relative="1" as="geometry" />
        </mxCell>
        <mxCell id="hv76raOZ1HIrlFXWzZwD-29" value="" style="group" vertex="1" connectable="0" parent="fqJWR_jfEDpAS1yq1Xmd-198">
          <mxGeometry x="380" y="300" width="137" height="30" as="geometry" />
        </mxCell>
        <mxCell id="hv76raOZ1HIrlFXWzZwD-26" value="skip subfolder, print warning" style="text;html=1;align=center;verticalAlign=middle;whiteSpace=wrap;rounded=0;" vertex="1" parent="hv76raOZ1HIrlFXWzZwD-29">
          <mxGeometry width="102" height="30" as="geometry" />
        </mxCell>
        <mxCell id="hv76raOZ1HIrlFXWzZwD-27" value="" style="shape=sumEllipse;perimeter=ellipsePerimeter;html=1;backgroundOutline=1;" vertex="1" parent="hv76raOZ1HIrlFXWzZwD-29">
          <mxGeometry x="107" width="30" height="30" as="geometry" />
        </mxCell>
        <mxCell id="hv76raOZ1HIrlFXWzZwD-33" style="edgeStyle=orthogonalEdgeStyle;rounded=0;orthogonalLoop=1;jettySize=auto;html=1;entryX=0.5;entryY=0;entryDx=0;entryDy=0;" edge="1" parent="fqJWR_jfEDpAS1yq1Xmd-198" source="hv76raOZ1HIrlFXWzZwD-9" target="hv76raOZ1HIrlFXWzZwD-27">
          <mxGeometry relative="1" as="geometry" />
        </mxCell>
        <mxCell id="hv76raOZ1HIrlFXWzZwD-34" value="yes" style="edgeLabel;html=1;align=center;verticalAlign=middle;resizable=0;points=[];" vertex="1" connectable="0" parent="hv76raOZ1HIrlFXWzZwD-33">
          <mxGeometry x="0.0648" relative="1" as="geometry">
            <mxPoint y="-3" as="offset" />
          </mxGeometry>
        </mxCell>
        <mxCell id="hv76raOZ1HIrlFXWzZwD-35" style="edgeStyle=orthogonalEdgeStyle;rounded=0;orthogonalLoop=1;jettySize=auto;html=1;" edge="1" parent="fqJWR_jfEDpAS1yq1Xmd-198" source="hv76raOZ1HIrlFXWzZwD-9" target="hv76raOZ1HIrlFXWzZwD-10">
          <mxGeometry relative="1" as="geometry" />
        </mxCell>
        <mxCell id="hv76raOZ1HIrlFXWzZwD-36" value="no" style="edgeLabel;html=1;align=center;verticalAlign=middle;resizable=0;points=[];" vertex="1" connectable="0" parent="hv76raOZ1HIrlFXWzZwD-35">
          <mxGeometry x="-0.2519" y="-1" relative="1" as="geometry">
            <mxPoint as="offset" />
          </mxGeometry>
        </mxCell>
        <mxCell id="hv76raOZ1HIrlFXWzZwD-47" value="symlinks folder" style="html=1;whiteSpace=wrap;fillColor=#E5D4E8;fontStyle=1" vertex="1" parent="fqJWR_jfEDpAS1yq1Xmd-198">
          <mxGeometry x="687.5" y="270" width="110" height="50" as="geometry" />
        </mxCell>
        <mxCell id="hv76raOZ1HIrlFXWzZwD-48" value="&lt;font style=&quot;font-size: 9px;&quot;&gt;* EM27_instrument list is hard coded in pipeline.prepare_symlinks&lt;/font&gt;" style="text;html=1;align=center;verticalAlign=middle;whiteSpace=wrap;rounded=0;" vertex="1" parent="fqJWR_jfEDpAS1yq1Xmd-198">
          <mxGeometry x="6" y="320" width="267" height="19" as="geometry" />
        </mxCell>
        <mxCell id="hv76raOZ1HIrlFXWzZwD-49" style="edgeStyle=orthogonalEdgeStyle;rounded=0;orthogonalLoop=1;jettySize=auto;html=1;entryX=0.75;entryY=0;entryDx=0;entryDy=0;endArrow=none;startFill=0;dashed=1;" edge="1" parent="fqJWR_jfEDpAS1yq1Xmd-198" source="fqJWR_jfEDpAS1yq1Xmd-228" target="hv76raOZ1HIrlFXWzZwD-47">
          <mxGeometry relative="1" as="geometry" />
        </mxCell>
        <mxCell id="fqJWR_jfEDpAS1yq1Xmd-371" value="" style="group" parent="1" vertex="1" connectable="0">
          <mxGeometry x="40" y="-1221.285815602837" width="661.78" height="22.912411347517946" as="geometry" />
        </mxCell>
        <mxCell id="fqJWR_jfEDpAS1yq1Xmd-349" value="" style="group" parent="fqJWR_jfEDpAS1yq1Xmd-371" vertex="1" connectable="0">
          <mxGeometry y="1.2858156028369194" width="63.890357142857134" height="21.27659574468085" as="geometry" />
        </mxCell>
        <mxCell id="fqJWR_jfEDpAS1yq1Xmd-350" value="" style="whiteSpace=wrap;html=1;aspect=fixed;fillColor=#8BC478;" parent="fqJWR_jfEDpAS1yq1Xmd-349" vertex="1">
          <mxGeometry width="21.06275290963531" height="21.06275290963531" as="geometry" />
        </mxCell>
        <mxCell id="fqJWR_jfEDpAS1yq1Xmd-351" value="&lt;b&gt;&lt;font style=&quot;font-size: 10px;&quot;&gt;input&lt;/font&gt;&lt;/b&gt;" style="text;html=1;align=center;verticalAlign=middle;whiteSpace=wrap;rounded=0;" parent="fqJWR_jfEDpAS1yq1Xmd-349" vertex="1">
          <mxGeometry x="21.76484693877551" width="42.12551020408163" height="21.27659574468085" as="geometry" />
        </mxCell>
        <mxCell id="fqJWR_jfEDpAS1yq1Xmd-352" value="" style="endArrow=none;dashed=1;html=1;rounded=0;" parent="fqJWR_jfEDpAS1yq1Xmd-349" edge="1">
          <mxGeometry width="50" height="50" relative="1" as="geometry">
            <mxPoint x="53.358979591836736" y="21.099290780141843" as="sourcePoint" />
            <mxPoint x="32.29622448979592" y="21.099290780141843" as="targetPoint" />
            <Array as="points">
              <mxPoint x="39.317142857142855" y="21.099290780141843" />
            </Array>
          </mxGeometry>
        </mxCell>
        <mxCell id="fqJWR_jfEDpAS1yq1Xmd-353" value="" style="group" parent="fqJWR_jfEDpAS1yq1Xmd-371" vertex="1" connectable="0">
          <mxGeometry x="159.99683673469391" y="1.2858156028369194" width="70" height="21.28" as="geometry" />
        </mxCell>
        <mxCell id="fqJWR_jfEDpAS1yq1Xmd-354" value="" style="ellipse;fillColor=strokeColor;html=1;" parent="fqJWR_jfEDpAS1yq1Xmd-353" vertex="1">
          <mxGeometry width="21.062755102040814" height="21.27659574468085" as="geometry" />
        </mxCell>
        <mxCell id="fqJWR_jfEDpAS1yq1Xmd-355" value="&lt;font style=&quot;font-size: 10px;&quot;&gt;start node&lt;/font&gt;" style="text;html=1;align=center;verticalAlign=middle;whiteSpace=wrap;rounded=0;" parent="fqJWR_jfEDpAS1yq1Xmd-353" vertex="1">
          <mxGeometry x="23.26" width="48.74" height="21.28" as="geometry" />
        </mxCell>
        <mxCell id="fqJWR_jfEDpAS1yq1Xmd-356" value="" style="group" parent="fqJWR_jfEDpAS1yq1Xmd-371" vertex="1" connectable="0">
          <mxGeometry x="330.0020408163266" y="1.2858156028369194" width="80" height="21.28" as="geometry" />
        </mxCell>
        <mxCell id="fqJWR_jfEDpAS1yq1Xmd-357" value="" style="shape=sumEllipse;perimeter=ellipsePerimeter;html=1;backgroundOutline=1;fontStyle=0" parent="fqJWR_jfEDpAS1yq1Xmd-356" vertex="1">
          <mxGeometry width="21.06275510204082" height="21.27659574468085" as="geometry" />
        </mxCell>
        <mxCell id="fqJWR_jfEDpAS1yq1Xmd-358" value="&lt;font style=&quot;font-size: 10px;&quot;&gt;break node&lt;/font&gt;" style="text;html=1;align=center;verticalAlign=middle;whiteSpace=wrap;rounded=0;fontStyle=0" parent="fqJWR_jfEDpAS1yq1Xmd-356" vertex="1">
          <mxGeometry x="25.67" width="54.33" height="21.28" as="geometry" />
        </mxCell>
        <mxCell id="fqJWR_jfEDpAS1yq1Xmd-359" value="&lt;font style=&quot;font-size: 10px;&quot;&gt;action&lt;/font&gt;" style="rounded=1;whiteSpace=wrap;html=1;" parent="fqJWR_jfEDpAS1yq1Xmd-371" vertex="1">
          <mxGeometry x="519.9200000000001" y="0.005815602836719336" width="63.19" height="19.65" as="geometry" />
        </mxCell>
        <mxCell id="fqJWR_jfEDpAS1yq1Xmd-360" value="" style="group" parent="fqJWR_jfEDpAS1yq1Xmd-371" vertex="1" connectable="0">
          <mxGeometry x="80" y="1.634609929078124" width="63.890357142857134" height="21.27659574468085" as="geometry" />
        </mxCell>
        <mxCell id="fqJWR_jfEDpAS1yq1Xmd-361" value="" style="whiteSpace=wrap;html=1;aspect=fixed;fillColor=#E5D4E8;" parent="fqJWR_jfEDpAS1yq1Xmd-360" vertex="1">
          <mxGeometry width="21.06275290963531" height="21.06275290963531" as="geometry" />
        </mxCell>
        <mxCell id="fqJWR_jfEDpAS1yq1Xmd-362" value="&lt;b&gt;&lt;font style=&quot;font-size: 10px;&quot;&gt;output&lt;/font&gt;&lt;/b&gt;" style="text;html=1;align=center;verticalAlign=middle;whiteSpace=wrap;rounded=0;" parent="fqJWR_jfEDpAS1yq1Xmd-360" vertex="1">
          <mxGeometry x="21.76484693877551" width="42.12551020408163" height="21.27659574468085" as="geometry" />
        </mxCell>
        <mxCell id="fqJWR_jfEDpAS1yq1Xmd-363" value="" style="endArrow=none;dashed=1;html=1;rounded=0;" parent="fqJWR_jfEDpAS1yq1Xmd-360" edge="1">
          <mxGeometry width="50" height="50" relative="1" as="geometry">
            <mxPoint x="53.358979591836736" y="21.099290780141843" as="sourcePoint" />
            <mxPoint x="32.29622448979592" y="21.099290780141843" as="targetPoint" />
            <Array as="points">
              <mxPoint x="39.317142857142855" y="21.099290780141843" />
            </Array>
          </mxGeometry>
        </mxCell>
        <mxCell id="fqJWR_jfEDpAS1yq1Xmd-364" value="" style="group" parent="fqJWR_jfEDpAS1yq1Xmd-371" vertex="1" connectable="0">
          <mxGeometry x="250.00102040816324" y="0.004609929078014829" width="69.5070918367347" height="21.27659574468085" as="geometry" />
        </mxCell>
        <mxCell id="fqJWR_jfEDpAS1yq1Xmd-365" value="" style="ellipse;html=1;shape=endState;fillColor=strokeColor;" parent="fqJWR_jfEDpAS1yq1Xmd-364" vertex="1">
          <mxGeometry width="21.06275510204082" height="21.27659574468085" as="geometry" />
        </mxCell>
        <mxCell id="fqJWR_jfEDpAS1yq1Xmd-366" value="&lt;font style=&quot;font-size: 10px;&quot;&gt;end node&lt;/font&gt;" style="text;html=1;align=center;verticalAlign=middle;whiteSpace=wrap;rounded=0;" parent="fqJWR_jfEDpAS1yq1Xmd-364" vertex="1">
          <mxGeometry x="22.06275510204082" width="48.444336734693884" height="21.27659574468085" as="geometry" />
        </mxCell>
        <mxCell id="fqJWR_jfEDpAS1yq1Xmd-367" value="&lt;b&gt;&lt;font style=&quot;font-size: 10px;&quot;&gt;function_name&lt;/font&gt;&lt;/b&gt;" style="text;html=1;align=center;verticalAlign=middle;whiteSpace=wrap;rounded=0;" parent="fqJWR_jfEDpAS1yq1Xmd-371" vertex="1">
          <mxGeometry x="599.9959183673469" y="1.6358156028370558" width="61.78408163265306" height="21.27659574468085" as="geometry" />
        </mxCell>
        <mxCell id="fqJWR_jfEDpAS1yq1Xmd-368" value="" style="group" parent="fqJWR_jfEDpAS1yq1Xmd-371" vertex="1" connectable="0">
          <mxGeometry x="420.00204081632654" width="90" height="21.990000000000002" as="geometry" />
        </mxCell>
        <mxCell id="fqJWR_jfEDpAS1yq1Xmd-369" value="" style="rhombus;fontStyle=0" parent="fqJWR_jfEDpAS1yq1Xmd-368" vertex="1">
          <mxGeometry width="21.062755102040814" height="21.27659574468085" as="geometry" />
        </mxCell>
        <mxCell id="fqJWR_jfEDpAS1yq1Xmd-370" value="&lt;font style=&quot;font-size: 10px;&quot;&gt;decision node&lt;/font&gt;" style="text;html=1;align=center;verticalAlign=middle;whiteSpace=wrap;rounded=0;fontStyle=0" parent="fqJWR_jfEDpAS1yq1Xmd-368" vertex="1">
          <mxGeometry x="21.19" y="0.71" width="68.81" height="21.28" as="geometry" />
        </mxCell>
        <mxCell id="fqJWR_jfEDpAS1yq1Xmd-373" value="" style="group" parent="1" vertex="1" connectable="0">
          <mxGeometry x="10" y="-460" width="331.61" height="50.004184397163044" as="geometry" />
        </mxCell>
        <mxCell id="fqJWR_jfEDpAS1yq1Xmd-323" value="" style="group" parent="fqJWR_jfEDpAS1yq1Xmd-373" vertex="1" connectable="0">
          <mxGeometry width="63.890357142857134" height="21.27659574468085" as="geometry" />
        </mxCell>
        <mxCell id="fqJWR_jfEDpAS1yq1Xmd-324" value="" style="whiteSpace=wrap;html=1;aspect=fixed;fillColor=#8BC478;" parent="fqJWR_jfEDpAS1yq1Xmd-323" vertex="1">
          <mxGeometry width="21.06275290963531" height="21.06275290963531" as="geometry" />
        </mxCell>
        <mxCell id="fqJWR_jfEDpAS1yq1Xmd-325" value="&lt;b&gt;&lt;font style=&quot;font-size: 10px;&quot;&gt;input&lt;/font&gt;&lt;/b&gt;" style="text;html=1;align=center;verticalAlign=middle;whiteSpace=wrap;rounded=0;" parent="fqJWR_jfEDpAS1yq1Xmd-323" vertex="1">
          <mxGeometry x="21.76484693877551" width="42.12551020408163" height="21.27659574468085" as="geometry" />
        </mxCell>
        <mxCell id="fqJWR_jfEDpAS1yq1Xmd-326" value="" style="endArrow=none;dashed=1;html=1;rounded=0;" parent="fqJWR_jfEDpAS1yq1Xmd-323" edge="1">
          <mxGeometry width="50" height="50" relative="1" as="geometry">
            <mxPoint x="53.358979591836736" y="21.099290780141843" as="sourcePoint" />
            <mxPoint x="32.29622448979592" y="21.099290780141843" as="targetPoint" />
            <Array as="points">
              <mxPoint x="39.317142857142855" y="21.099290780141843" />
            </Array>
          </mxGeometry>
        </mxCell>
        <mxCell id="fqJWR_jfEDpAS1yq1Xmd-327" value="" style="group" parent="fqJWR_jfEDpAS1yq1Xmd-373" vertex="1" connectable="0">
          <mxGeometry y="28.368794326241186" width="63.890357142857134" height="21.27659574468085" as="geometry" />
        </mxCell>
        <mxCell id="fqJWR_jfEDpAS1yq1Xmd-328" value="" style="whiteSpace=wrap;html=1;aspect=fixed;fillColor=#E5D4E8;" parent="fqJWR_jfEDpAS1yq1Xmd-327" vertex="1">
          <mxGeometry width="21.06275290963531" height="21.06275290963531" as="geometry" />
        </mxCell>
        <mxCell id="fqJWR_jfEDpAS1yq1Xmd-329" value="&lt;b&gt;&lt;font style=&quot;font-size: 10px;&quot;&gt;output&lt;/font&gt;&lt;/b&gt;" style="text;html=1;align=center;verticalAlign=middle;whiteSpace=wrap;rounded=0;" parent="fqJWR_jfEDpAS1yq1Xmd-327" vertex="1">
          <mxGeometry x="21.76484693877551" width="42.12551020408163" height="21.27659574468085" as="geometry" />
        </mxCell>
        <mxCell id="fqJWR_jfEDpAS1yq1Xmd-330" value="" style="endArrow=none;dashed=1;html=1;rounded=0;" parent="fqJWR_jfEDpAS1yq1Xmd-327" edge="1">
          <mxGeometry width="50" height="50" relative="1" as="geometry">
            <mxPoint x="53.358979591836736" y="21.099290780141843" as="sourcePoint" />
            <mxPoint x="32.29622448979592" y="21.099290780141843" as="targetPoint" />
            <Array as="points">
              <mxPoint x="39.317142857142855" y="21.099290780141843" />
            </Array>
          </mxGeometry>
        </mxCell>
        <mxCell id="fqJWR_jfEDpAS1yq1Xmd-331" value="" style="group" parent="fqJWR_jfEDpAS1yq1Xmd-373" vertex="1" connectable="0">
          <mxGeometry x="82.84683673469385" width="70" height="21.28" as="geometry" />
        </mxCell>
        <mxCell id="fqJWR_jfEDpAS1yq1Xmd-332" value="" style="ellipse;fillColor=strokeColor;html=1;" parent="fqJWR_jfEDpAS1yq1Xmd-331" vertex="1">
          <mxGeometry width="21.062755102040814" height="21.27659574468085" as="geometry" />
        </mxCell>
        <mxCell id="fqJWR_jfEDpAS1yq1Xmd-333" value="&lt;font style=&quot;font-size: 10px;&quot;&gt;start node&lt;/font&gt;" style="text;html=1;align=center;verticalAlign=middle;whiteSpace=wrap;rounded=0;" parent="fqJWR_jfEDpAS1yq1Xmd-331" vertex="1">
          <mxGeometry x="23.06" width="48.94" height="21.28" as="geometry" />
        </mxCell>
        <mxCell id="fqJWR_jfEDpAS1yq1Xmd-334" value="" style="group" parent="fqJWR_jfEDpAS1yq1Xmd-373" vertex="1" connectable="0">
          <mxGeometry x="84.25102040816324" y="28.368794326241186" width="69.5070918367347" height="21.27659574468085" as="geometry" />
        </mxCell>
        <mxCell id="fqJWR_jfEDpAS1yq1Xmd-335" value="" style="ellipse;html=1;shape=endState;fillColor=strokeColor;" parent="fqJWR_jfEDpAS1yq1Xmd-334" vertex="1">
          <mxGeometry width="21.06275510204082" height="21.27659574468085" as="geometry" />
        </mxCell>
        <mxCell id="fqJWR_jfEDpAS1yq1Xmd-336" value="&lt;font style=&quot;font-size: 10px;&quot;&gt;end node&lt;/font&gt;" style="text;html=1;align=center;verticalAlign=middle;whiteSpace=wrap;rounded=0;" parent="fqJWR_jfEDpAS1yq1Xmd-334" vertex="1">
          <mxGeometry x="22.06275510204082" width="48.444336734693884" height="21.27659574468085" as="geometry" />
        </mxCell>
        <mxCell id="fqJWR_jfEDpAS1yq1Xmd-337" value="" style="group" parent="fqJWR_jfEDpAS1yq1Xmd-373" vertex="1" connectable="0">
          <mxGeometry x="168.50204081632648" width="80" height="21.28" as="geometry" />
        </mxCell>
        <mxCell id="fqJWR_jfEDpAS1yq1Xmd-338" value="" style="shape=sumEllipse;perimeter=ellipsePerimeter;html=1;backgroundOutline=1;fontStyle=0" parent="fqJWR_jfEDpAS1yq1Xmd-337" vertex="1">
          <mxGeometry width="21.06275510204082" height="21.27659574468085" as="geometry" />
        </mxCell>
        <mxCell id="fqJWR_jfEDpAS1yq1Xmd-339" value="&lt;font style=&quot;font-size: 10px;&quot;&gt;break node&lt;/font&gt;" style="text;html=1;align=center;verticalAlign=middle;whiteSpace=wrap;rounded=0;fontStyle=0" parent="fqJWR_jfEDpAS1yq1Xmd-337" vertex="1">
          <mxGeometry x="25.67" width="54.33" height="21.28" as="geometry" />
        </mxCell>
        <mxCell id="fqJWR_jfEDpAS1yq1Xmd-340" value="&lt;b&gt;&lt;font style=&quot;font-size: 10px;&quot;&gt;function_name&lt;/font&gt;&lt;/b&gt;" style="text;html=1;align=center;verticalAlign=middle;whiteSpace=wrap;rounded=0;" parent="fqJWR_jfEDpAS1yq1Xmd-373" vertex="1">
          <mxGeometry x="269.82591836734696" y="28.720000000000027" width="61.78408163265306" height="21.27659574468085" as="geometry" />
        </mxCell>
        <mxCell id="fqJWR_jfEDpAS1yq1Xmd-342" value="&lt;font style=&quot;font-size: 10px;&quot;&gt;action&lt;/font&gt;" style="rounded=1;whiteSpace=wrap;html=1;" parent="fqJWR_jfEDpAS1yq1Xmd-373" vertex="1">
          <mxGeometry x="266.78999999999996" y="0.34999999999990905" width="63.19" height="19.65" as="geometry" />
        </mxCell>
        <mxCell id="fqJWR_jfEDpAS1yq1Xmd-343" value="" style="group" parent="fqJWR_jfEDpAS1yq1Xmd-373" vertex="1" connectable="0">
          <mxGeometry x="168.50204081632648" y="28.014184397163035" width="90" height="21.990000000000002" as="geometry" />
        </mxCell>
        <mxCell id="fqJWR_jfEDpAS1yq1Xmd-344" value="" style="rhombus;fontStyle=0" parent="fqJWR_jfEDpAS1yq1Xmd-343" vertex="1">
          <mxGeometry width="21.062755102040814" height="21.27659574468085" as="geometry" />
        </mxCell>
        <mxCell id="fqJWR_jfEDpAS1yq1Xmd-345" value="&lt;font style=&quot;font-size: 10px;&quot;&gt;decision node&lt;/font&gt;" style="text;html=1;align=center;verticalAlign=middle;whiteSpace=wrap;rounded=0;fontStyle=0" parent="fqJWR_jfEDpAS1yq1Xmd-343" vertex="1">
          <mxGeometry x="21.19" y="0.71" width="68.81" height="21.28" as="geometry" />
        </mxCell>
      </root>
    </mxGraphModel>
  </diagram>
</mxfile>
